<?xml version="1.0" standalone="no"?>
<!DOCTYPE svg PUBLIC "-//W3C//DTD SVG 20010904//EN"
 "http://www.w3.org/TR/2001/REC-SVG-20010904/DTD/svg10.dtd">
<svg version="1.0" xmlns="http://www.w3.org/2000/svg"
 width="3300.000000pt" height="2550.000000pt" viewBox="0 0 3300.000000 2550.000000"
 preserveAspectRatio="xMidYMid meet">

<g transform="translate(0.000000,2550.000000) scale(0.100000,-0.100000)"
fill="#000000" stroke="none">
<path d="M14950 22520 l0 -590 100 0 100 0 0 175 0 175 178 0 c187 0 241 9
326 52 58 29 134 111 163 174 90 198 19 452 -154 547 -94 51 -143 57 -440 57
l-273 0 0 -590z m585 398 c87 -49 129 -121 128 -220 -1 -83 -28 -144 -85 -193
-54 -46 -111 -56 -288 -53 l-145 3 -3 230 c-1 126 0 236 3 243 8 22 349 13
390 -10z"/>
<path d="M15980 22612 c0 -556 1 -570 66 -642 39 -43 93 -60 192 -60 100 0
102 2 102 81 l0 69 -55 0 c-46 0 -60 4 -87 29 l-33 29 -3 496 -3 496 -89 0
-90 0 0 -498z"/>
<path d="M18878 23081 c-28 -25 -32 -34 -31 -80 1 -42 5 -56 27 -76 35 -32 69
-40 115 -26 53 15 74 42 75 94 2 79 -35 117 -114 117 -30 0 -48 -7 -72 -29z"/>
<path d="M17480 22840 l0 -100 -85 0 -85 0 0 -75 0 -75 84 0 84 0 4 -242 c3
-222 5 -247 24 -289 28 -60 85 -114 142 -133 56 -20 198 -21 267 -2 l50 13 -2
68 c-2 37 -4 69 -6 71 -2 2 -25 -3 -52 -11 -104 -32 -185 -11 -222 57 -15 28
-18 64 -21 251 l-3 217 140 0 141 0 0 75 0 75 -140 0 -140 0 0 100 0 100 -90
0 -90 0 0 -100z"/>
<path d="M16750 22754 c-151 -23 -271 -108 -327 -232 -21 -45 -27 -76 -31
-157 -9 -198 61 -345 197 -415 58 -29 156 -42 227 -29 78 14 108 31 171 96
l53 54 0 -30 c0 -84 81 -134 193 -117 l42 6 -3 65 c-3 59 -6 65 -25 65 -60 1
-66 33 -67 362 l0 266 -77 26 c-121 40 -254 54 -353 40z m215 -166 l40 -13 0
-155 c-1 -147 -2 -158 -28 -215 -47 -101 -133 -142 -245 -116 -59 15 -112 64
-138 131 -22 54 -24 168 -5 224 24 70 99 137 176 157 40 11 150 4 200 -13z"/>
<path d="M18080 22665 l0 -75 190 0 c105 0 190 -2 190 -5 0 -3 -30 -49 -67
-103 -73 -104 -133 -195 -204 -307 -25 -38 -64 -100 -87 -136 -23 -36 -42 -75
-42 -87 l0 -22 335 0 335 0 0 80 0 80 -205 0 -205 0 48 68 c103 145 97 136
289 435 40 61 73 120 73 130 0 16 -22 17 -325 17 l-325 0 0 -75z"/>
<path d="M18860 22335 l0 -405 95 0 95 0 0 405 0 405 -95 0 -95 0 0 -405z"/>
<path d="M16402 20238 c-23 -23 -7 -68 24 -68 14 0 44 27 44 40 0 13 -30 40
-44 40 -6 0 -17 -5 -24 -12z"/>
<path d="M16651 20237 c-43 -15 -71 -52 -78 -105 -5 -36 -9 -42 -29 -42 -31 0
-32 -28 -1 -32 21 -3 22 -6 25 -140 l3 -138 24 0 24 0 3 138 3 137 70 0 70 0
3 -137 3 -138 24 0 25 0 0 155 0 155 -95 0 c-107 0 -117 7 -94 61 13 33 59 59
104 59 18 0 25 5 25 20 0 17 -6 20 -37 19 -21 0 -53 -5 -72 -12z"/>
<path d="M15240 20229 c-88 -36 -134 -110 -135 -219 0 -142 65 -220 192 -228
74 -5 132 10 163 43 l20 22 -20 18 c-11 10 -20 13 -20 8 0 -6 -18 -18 -40 -27
-100 -40 -197 0 -229 93 -27 81 -1 179 59 221 48 34 127 39 181 11 39 -21 42
-21 54 -4 17 23 13 29 -35 53 -43 22 -145 27 -190 9z"/>
<path d="M16186 20194 c-3 -9 -6 -31 -6 -51 0 -29 -5 -36 -30 -46 -36 -14 -40
-37 -5 -37 l25 0 0 -118 c0 -105 2 -121 20 -140 23 -24 86 -30 121 -11 32 17
6 39 -36 32 -31 -5 -36 -2 -45 21 -5 15 -10 70 -10 122 l0 94 50 0 c43 0 50 3
50 20 0 17 -7 20 -50 20 l-50 0 0 55 c0 40 -4 55 -14 55 -8 0 -17 -7 -20 -16z"/>
<path d="M15620 20093 c-54 -28 -80 -75 -80 -144 0 -118 47 -169 157 -169 46
0 64 5 88 24 23 18 27 27 19 36 -9 9 -19 8 -42 -4 -79 -41 -172 4 -172 83 0
20 5 21 115 21 130 0 128 -1 103 82 -22 73 -115 109 -188 71z m122 -51 c10 -9
19 -28 20 -42 3 -25 2 -25 -84 -28 -49 -1 -88 0 -88 4 0 3 7 21 16 39 25 54
95 67 136 27z"/>
<path d="M16003 20100 c-12 -5 -27 -18 -33 -29 -15 -29 -30 -26 -30 4 0 20 -5
25 -25 25 l-25 0 0 -160 0 -160 30 0 30 0 0 105 c0 57 5 115 11 129 13 28 60
49 94 40 17 -4 24 0 28 17 3 12 4 26 1 31 -7 10 -53 9 -81 -2z"/>
<path d="M16400 19950 l0 -160 25 0 25 0 0 160 0 160 -25 0 -25 0 0 -160z"/>
<path d="M17003 20104 c-32 -8 -79 -57 -93 -99 -20 -60 -4 -148 35 -191 36
-39 130 -46 184 -13 31 18 32 22 18 36 -14 14 -17 14 -38 -1 -37 -26 -86 -21
-120 13 -25 26 -29 37 -29 86 0 72 20 110 64 125 28 9 42 8 72 -5 33 -13 40
-14 52 -1 12 12 11 16 -12 31 -27 18 -94 27 -133 19z"/>
<path d="M17263 20090 c-40 -18 -55 -42 -34 -54 5 -3 30 3 55 15 70 31 115 8
116 -57 0 -31 -1 -31 -56 -38 -122 -14 -182 -89 -119 -151 31 -32 95 -34 143
-5 40 25 42 25 42 0 0 -13 7 -20 20 -20 19 0 20 7 20 125 0 140 -8 167 -55
190 -43 20 -81 19 -132 -5z m137 -199 c0 -43 -20 -63 -77 -75 -25 -6 -36 -3
-52 13 -39 39 -23 68 45 87 79 21 84 19 84 -25z"/>
<path d="M17739 20101 c-42 -13 -69 -31 -69 -46 0 -25 18 -26 59 -6 69 36 121
8 121 -64 0 -21 -5 -25 -32 -25 -87 0 -168 -49 -168 -101 0 -18 10 -39 25 -54
31 -32 95 -34 143 -5 40 25 42 25 42 0 0 -13 7 -20 20 -20 19 0 20 7 20 125 0
71 -5 135 -11 149 -21 44 -88 65 -150 47z m111 -210 c0 -29 -6 -42 -22 -53
-50 -32 -108 -29 -122 7 -15 41 35 73 132 84 8 1 12 -13 12 -38z"/>
<path d="M14446 19325 c-57 -20 -87 -45 -116 -96 l-25 -44 -3 -338 c-3 -281
-1 -347 12 -391 21 -70 49 -103 110 -132 121 -57 258 -10 309 106 18 39 21 73
25 238 l5 192 -112 0 -112 0 3 -47 3 -48 53 -3 52 -3 -1 -122 c0 -143 -11
-183 -59 -215 -46 -31 -102 -24 -145 19 l-30 29 -3 323 c-2 205 0 335 7 358
17 55 52 82 110 83 84 2 121 -53 121 -176 l0 -58 56 0 57 0 -7 88 c-11 140
-59 214 -157 242 -47 14 -107 12 -153 -5z"/>
<path d="M16780 19320 c-57 -27 -77 -45 -104 -95 -20 -38 -21 -55 -24 -378 -3
-368 2 -414 53 -475 75 -89 254 -94 336 -9 52 54 62 99 67 305 l5 192 -112 0
-111 0 0 -50 0 -50 56 0 56 0 -4 -137 c-2 -116 -6 -143 -23 -171 -37 -62 -146
-64 -190 -4 -19 26 -20 43 -20 372 0 329 1 346 20 372 26 36 82 52 134 38 54
-14 81 -69 81 -163 l0 -67 56 0 57 0 -7 88 c-14 169 -76 240 -216 249 -51 3
-75 -1 -110 -17z"/>
<path d="M18521 19321 c-59 -24 -97 -68 -116 -135 -14 -47 -16 -107 -13 -393
3 -324 4 -340 25 -378 49 -93 140 -129 266 -109 50 9 121 72 142 127 10 28 17
79 18 143 l2 99 -52 3 -53 3 0 -78 c0 -145 -33 -199 -121 -197 -42 0 -55 5
-82 32 l-32 32 0 350 0 350 32 32 c27 27 40 32 82 32 85 2 121 -52 121 -182
l0 -63 53 3 52 3 -2 85 c-3 104 -22 158 -73 204 -63 57 -163 72 -249 37z"/>
<path d="M13320 18820 l0 -510 45 0 c29 0 45 4 45 13 0 6 0 180 0 386 0 210 4
371 9 365 5 -5 44 -179 86 -386 l79 -378 53 0 c34 0 55 5 57 13 3 6 38 183 79
392 l75 380 1 -392 1 -393 55 0 55 0 0 510 0 510 -79 0 c-74 0 -79 -1 -84 -22
-3 -13 -38 -191 -78 -395 -40 -205 -76 -373 -79 -373 -4 0 -14 37 -22 83 -8
45 -44 223 -79 394 l-64 313 -77 0 -78 0 0 -510z"/>
<path d="M14080 18820 l0 -510 55 0 55 0 0 510 0 510 -55 0 -55 0 0 -510z"/>
<path d="M14862 18903 l3 -428 27 -55 c32 -64 87 -106 154 -116 109 -16 198
26 242 116 l27 55 3 428 3 427 -55 0 -55 0 -3 -431 -3 -431 -33 -29 c-26 -23
-41 -29 -80 -29 -54 0 -84 17 -100 57 -8 19 -12 167 -14 443 l-3 415 -58 3
-59 3 4 -428z"/>
<path d="M15430 18820 l0 -510 208 2 207 3 0 45 0 45 -152 3 -153 3 0 184 0
185 125 0 125 0 0 50 0 50 -125 0 -125 0 0 175 0 174 153 3 152 3 1 48 2 47
-209 0 -209 0 0 -510z"/>
<path d="M15950 18820 l0 -510 200 0 200 0 0 50 0 50 -145 0 -145 0 0 460 0
460 -55 0 -55 0 0 -510z"/>
<path d="M17356 19183 c-32 -167 -66 -346 -97 -508 -12 -60 -32 -165 -45 -231
-13 -67 -24 -124 -24 -128 0 -12 101 -6 104 7 3 6 12 51 22 100 l17 87 129 0
c70 0 128 -2 128 -4 0 -5 27 -139 35 -173 5 -20 12 -23 60 -23 30 0 55 2 55 4
0 2 -11 60 -24 128 -14 68 -32 164 -41 213 -9 50 -38 205 -65 345 -27 140 -52
272 -56 293 l-6 37 -82 0 -82 0 -28 -147z m122 -78 c6 -33 29 -154 51 -270 23
-115 41 -213 41 -217 0 -5 -49 -8 -110 -8 -60 0 -110 3 -110 8 0 4 16 90 35
192 19 102 42 227 51 278 10 51 21 89 25 85 3 -4 11 -35 17 -68z"/>
<path d="M17830 18821 l0 -511 55 0 55 0 0 221 0 222 75 -6 c90 -7 129 -30
145 -85 5 -20 10 -94 10 -163 0 -70 3 -141 6 -158 6 -31 7 -31 66 -31 54 0 59
2 52 18 -4 9 -10 94 -13 187 -7 189 -16 221 -79 260 -17 11 -31 22 -31 25 -1
3 14 15 33 27 58 37 71 80 71 228 0 152 -13 190 -84 240 -42 30 -44 30 -202
34 l-159 3 0 -511z m268 398 c51 -18 66 -51 70 -164 7 -166 -24 -205 -163
-205 l-65 0 0 190 0 190 64 0 c34 0 77 -5 94 -11z"/>
<path d="M18950 18820 l0 -510 55 0 55 0 0 510 0 510 -55 0 -55 0 0 -510z"/>
<path d="M19340 19323 c0 -9 -91 -492 -146 -777 -24 -126 -44 -231 -44 -233 0
-1 25 -3 55 -3 53 0 55 1 55 28 0 15 4 43 9 62 5 19 12 52 16 73 l6 37 129 0
c72 0 130 -2 130 -4 0 -5 27 -139 35 -173 5 -21 12 -23 61 -23 55 0 56 0 50
28 -3 15 -23 119 -45 232 -21 113 -63 330 -92 483 l-53 277 -83 0 c-46 0 -83
-3 -83 -7z m98 -218 c6 -33 29 -154 51 -269 23 -116 41 -214 41 -218 0 -4 -50
-8 -111 -8 l-111 0 4 28 c30 180 104 540 109 535 4 -5 11 -35 17 -68z"/>
<path d="M15209 17594 c-19 -23 1 -49 37 -49 23 0 30 5 32 24 6 39 -43 56 -69
25z"/>
<path d="M15670 17590 c-15 -28 4 -52 39 -48 22 2 26 8 26 33 0 25 -4 31 -27
33 -19 2 -30 -3 -38 -18z"/>
<path d="M18640 17380 l0 -230 25 0 c16 0 25 6 25 15 0 19 9 19 31 -1 10 -9
35 -18 56 -21 47 -6 100 26 125 77 37 73 13 211 -41 240 -32 17 -100 12 -131
-10 -15 -11 -30 -17 -34 -13 -3 3 -6 44 -6 90 0 82 0 83 -25 83 l-25 0 0 -230z
m194 35 c42 -42 43 -155 1 -203 -19 -22 -31 -27 -66 -26 -63 2 -79 27 -79 119
0 69 2 75 31 99 35 30 89 35 113 11z"/>
<path d="M20050 17380 l0 -230 25 0 25 0 0 230 0 230 -25 0 -25 0 0 -230z"/>
<path d="M12920 17370 l0 -230 30 0 29 0 3 88 3 87 75 6 c41 3 85 10 97 17 60
33 85 111 57 182 -25 61 -70 79 -196 80 l-98 0 0 -230z m216 158 c36 -35 40
-76 12 -118 -20 -30 -31 -36 -80 -44 -86 -14 -88 -11 -88 92 0 49 3 92 8 96 4
5 34 6 66 3 44 -4 65 -11 82 -29z"/>
<path d="M15009 17577 c0 -1 -6 -27 -12 -57 -10 -45 -16 -56 -34 -58 -31 -4
-29 -28 2 -36 25 -6 25 -7 25 -122 0 -63 4 -124 10 -134 13 -25 62 -34 105
-20 37 12 40 17 26 39 -7 10 -13 11 -30 2 -15 -9 -27 -9 -41 -1 -18 10 -20 21
-20 125 l0 115 45 0 c33 0 45 4 45 15 0 11 -12 15 -45 15 l-45 0 0 54 c0 39
-4 55 -15 60 -8 3 -15 4 -16 3z"/>
<path d="M13331 17443 c-63 -50 -81 -150 -39 -224 27 -49 55 -68 112 -75 34
-5 55 -1 88 15 59 28 78 63 78 146 0 116 -47 165 -158 165 -36 0 -55 -7 -81
-27z m140 -23 c42 -23 63 -115 39 -172 -20 -50 -39 -63 -86 -63 -38 0 -50 5
-70 28 -20 24 -24 39 -24 93 0 59 3 68 29 95 31 31 75 38 112 19z"/>
<path d="M13650 17310 l0 -160 25 0 25 0 0 104 c0 98 2 106 26 136 23 27 32
31 68 28 38 -2 41 -1 44 25 3 26 1 27 -38 27 -34 0 -48 -6 -70 -30 l-28 -30
-6 30 c-4 21 -11 30 -26 30 -19 0 -20 -6 -20 -160z"/>
<path d="M14029 17466 c-2 -2 -3 -99 -1 -215 l3 -211 24 0 c24 0 25 3 25 65 0
36 2 65 3 65 2 0 18 -7 36 -16 68 -34 160 10 181 85 23 82 4 172 -42 211 -35
29 -109 27 -146 -5 l-30 -25 -6 25 c-6 22 -33 34 -47 21z m194 -54 c40 -44 39
-165 -2 -205 -27 -28 -91 -29 -120 -3 -18 16 -21 31 -21 97 0 74 1 78 31 103
36 31 88 35 112 8z"/>
<path d="M14423 17455 c-22 -9 -33 -21 -33 -35 0 -23 15 -25 50 -5 28 16 78
19 98 7 16 -11 33 -68 25 -88 -3 -9 -20 -14 -47 -14 -42 0 -125 -32 -138 -53
-16 -25 -8 -84 13 -103 30 -27 108 -26 147 3 29 21 30 22 35 3 3 -12 14 -20
26 -20 20 0 21 5 21 114 0 125 -10 167 -45 190 -30 20 -109 20 -152 1z m143
-180 c17 -43 -34 -95 -93 -95 -36 0 -53 16 -53 51 0 22 7 30 38 42 48 21 101
21 108 2z"/>
<path d="M14710 17310 l0 -160 24 0 c24 0 24 1 28 109 3 99 5 112 27 135 16
17 36 26 65 28 34 2 42 7 44 26 3 20 -1 22 -38 22 -34 0 -48 -6 -70 -30 l-28
-30 -6 30 c-4 21 -11 30 -26 30 -19 0 -20 -6 -20 -160z"/>
<path d="M15220 17310 l0 -160 25 0 25 0 0 160 0 160 -25 0 -25 0 0 -160z"/>
<path d="M15425 17458 c-55 -32 -75 -72 -75 -153 0 -98 55 -165 136 -165 47 0
108 28 112 53 4 21 -15 22 -57 1 -92 -46 -173 69 -128 179 18 42 55 61 104 53
68 -11 76 -11 80 1 12 33 -126 58 -172 31z"/>
<path d="M15680 17310 l0 -160 25 0 25 0 0 160 0 160 -25 0 -25 0 0 -160z"/>
<path d="M15830 17255 l0 -215 30 0 30 0 0 73 c0 39 4 67 8 60 13 -20 65 -34
103 -28 46 8 96 56 105 101 3 19 4 64 2 101 -4 59 -7 68 -37 95 -31 27 -39 30
-87 26 -31 -3 -62 -12 -72 -21 -24 -22 -32 -21 -32 3 0 15 -7 20 -25 20 l-25
0 0 -215z m201 149 c21 -22 24 -35 24 -96 0 -67 -1 -71 -34 -100 -27 -24 -39
-29 -64 -24 -57 11 -67 30 -67 122 0 77 2 84 26 103 37 29 85 27 115 -5z"/>
<path d="M16223 17450 c-55 -33 -32 -65 26 -36 68 36 121 9 121 -61 0 -33 0
-33 -48 -33 -51 0 -128 -32 -145 -61 -18 -29 1 -87 33 -104 38 -20 66 -19 119
5 52 24 51 24 51 5 0 -9 9 -15 21 -15 20 0 20 4 17 136 -3 135 -3 136 -31 160
-37 31 -117 33 -164 4z m147 -194 c0 -25 -7 -40 -26 -55 -55 -44 -136 -14
-115 42 11 28 50 44 109 46 30 1 32 -1 32 -33z"/>
<path d="M16510 17310 l0 -160 30 0 30 0 0 109 c0 101 2 110 25 135 18 20 34
26 63 26 31 0 41 4 45 19 7 26 0 31 -42 31 -26 0 -44 -8 -68 -32 l-33 -32 0
32 c0 27 -4 32 -25 32 l-25 0 0 -160z"/>
<path d="M16864 17438 c8 -18 37 -85 65 -148 28 -63 51 -120 51 -127 0 -8 -12
-37 -26 -65 -27 -53 -23 -71 12 -58 15 6 44 64 107 211 48 112 87 208 87 212
0 5 -10 7 -22 5 -25 -3 -42 -32 -95 -163 -32 -80 -32 -80 -43 -50 -6 17 -28
71 -49 120 -36 83 -41 90 -70 93 l-30 3 13 -33z"/>
<path d="M17388 17459 c-29 -11 -44 -37 -29 -52 5 -5 21 -2 39 7 33 17 79 21
100 8 16 -11 33 -68 25 -88 -3 -9 -20 -14 -47 -14 -42 0 -125 -32 -138 -53
-16 -25 -8 -84 13 -103 30 -27 108 -26 147 3 29 21 30 22 35 3 3 -12 14 -20
26 -20 20 0 21 5 21 114 0 124 -8 158 -43 187 -24 20 -102 25 -149 8z m138
-184 c17 -43 -34 -95 -93 -95 -36 0 -53 16 -53 51 0 22 7 30 38 42 48 21 101
21 108 2z"/>
<path d="M17670 17256 l0 -216 25 0 c24 0 25 2 25 65 0 36 2 65 3 65 2 0 19
-7 36 -16 55 -28 131 -4 167 51 42 64 23 214 -31 249 -38 25 -108 21 -144 -9
l-30 -26 -3 23 c-2 15 -11 24 -25 26 l-23 3 0 -215z m192 157 c43 -49 44 -153
3 -201 -16 -19 -31 -25 -63 -25 -67 0 -82 21 -82 114 0 74 1 78 31 103 36 31
88 35 111 9z"/>
<path d="M18020 17310 l0 -160 30 0 30 0 0 109 c0 101 2 110 25 135 18 20 34
26 63 26 31 0 41 4 45 19 7 26 0 31 -43 31 -26 0 -43 -7 -60 -25 -13 -14 -27
-25 -32 -25 -4 0 -8 11 -8 25 0 20 -5 25 -25 25 l-25 0 0 -160z"/>
<path d="M18329 17447 c-68 -45 -88 -141 -48 -224 26 -53 51 -71 111 -79 62
-9 129 23 152 70 20 43 21 147 1 186 -35 68 -148 93 -216 47z m132 -27 c33
-18 52 -68 47 -128 -4 -47 -10 -60 -38 -85 -27 -24 -39 -28 -68 -23 -47 7 -73
34 -82 86 -20 110 58 194 141 150z"/>
<path d="M19033 17450 c-55 -33 -32 -65 26 -36 64 34 121 7 121 -58 l0 -33
-65 -5 c-108 -9 -156 -60 -124 -131 22 -48 104 -62 149 -27 30 23 50 25 50 5
0 -8 9 -15 20 -15 19 0 20 7 20 120 0 169 -18 200 -117 200 -30 0 -60 -7 -80
-20z m147 -198 c0 -31 -5 -41 -29 -55 -16 -9 -45 -17 -63 -17 -65 0 -73 82
-10 96 15 3 32 7 37 9 6 2 22 4 38 4 25 1 27 -2 27 -37z"/>
<path d="M19320 17311 l0 -161 30 0 30 0 0 109 c0 101 2 110 25 135 18 20 34
26 65 26 22 0 40 4 40 9 0 5 3 16 6 25 5 13 -2 16 -38 16 -36 0 -50 -5 -74
-31 l-29 -30 -5 28 c-4 19 -12 29 -28 31 l-22 3 0 -160z"/>
<path d="M19749 17447 c-51 -34 -71 -80 -66 -149 9 -103 58 -153 152 -153 49
0 125 29 125 48 0 17 -32 18 -72 2 -77 -30 -142 4 -150 81 l-3 29 113 3 112 3
0 29 c0 34 -15 76 -33 94 -42 43 -125 49 -178 13z m138 -39 c11 -13 23 -33 26
-45 5 -23 3 -23 -84 -23 -80 0 -89 2 -89 19 0 10 12 30 26 45 35 34 91 36 121
4z"/>
<path d="M14493 15879 c-64 -25 -134 -99 -157 -166 -23 -67 -21 -189 4 -256
42 -113 132 -171 266 -172 70 0 88 4 140 30 47 24 59 36 59 54 0 27 -31 52
-43 36 -36 -51 -170 -72 -238 -37 -86 44 -127 121 -125 234 2 130 73 216 193
231 52 7 129 -11 157 -38 21 -18 48 -11 56 16 9 27 -1 38 -59 65 -67 31 -177
32 -253 3z"/>
<path d="M14962 15672 l3 -229 30 -49 c19 -30 49 -60 79 -79 44 -27 58 -30
126 -30 68 0 82 3 126 30 54 34 88 78 104 134 5 20 10 129 10 244 l0 207 -40
0 -40 0 0 -210 c0 -237 -5 -260 -65 -306 -68 -52 -176 -33 -227 38 -22 32 -23
41 -26 256 l-3 222 -40 0 -40 0 3 -228z"/>
<path d="M16274 15884 c-61 -30 -87 -68 -92 -132 -7 -102 23 -137 167 -187 90
-32 108 -46 117 -92 20 -104 -113 -160 -219 -93 -57 36 -61 36 -80 6 -15 -22
-14 -25 6 -44 38 -34 89 -54 152 -59 125 -11 215 69 215 190 0 55 -3 62 -37
97 -28 27 -60 44 -119 64 -129 43 -168 104 -105 167 40 39 120 43 177 8 40
-24 47 -24 60 6 10 20 9 27 -5 39 -49 45 -175 61 -237 30z"/>
<path d="M16834 15884 c-61 -22 -119 -77 -151 -142 -25 -51 -28 -68 -28 -152
1 -83 4 -101 27 -146 34 -66 74 -105 135 -134 150 -71 340 -4 403 142 31 72
37 172 15 239 -31 95 -66 139 -140 177 -63 32 -196 41 -261 16z m182 -59 c59
-17 116 -72 134 -130 7 -22 13 -73 13 -113 -1 -91 -30 -153 -92 -197 -39 -27
-50 -30 -121 -30 -71 0 -82 3 -122 30 -65 45 -93 109 -92 210 1 140 54 210
179 238 36 8 51 7 101 -8z"/>
<path d="M18270 15595 l0 -305 185 0 185 0 0 30 0 29 -147 3 -148 3 -3 103 -3
102 121 0 120 0 0 30 0 29 -117 3 -118 3 -3 103 -3 102 151 0 150 0 0 35 0 35
-185 0 -185 0 0 -305z"/>
<path d="M15630 15590 l0 -300 40 0 40 0 0 125 0 125 44 0 45 0 91 -125 92
-125 45 0 44 0 -22 33 c-13 17 -56 76 -96 130 -40 54 -73 99 -73 101 0 2 11 7
24 10 36 9 87 55 102 93 36 84 5 170 -76 211 -39 19 -59 22 -172 22 l-128 0 0
-300z m279 206 c24 -23 31 -38 31 -68 0 -88 -51 -128 -165 -128 l-65 0 0 116
0 116 84 -3 c78 -4 87 -6 115 -33z"/>
<path d="M17600 15589 l0 -301 163 4 c144 3 167 6 203 25 167 89 207 339 77
483 -67 75 -118 90 -298 90 l-145 0 0 -301z m315 222 c53 -24 91 -70 110 -133
39 -131 -8 -263 -109 -309 -31 -14 -65 -19 -143 -19 l-103 0 0 240 0 240 103
0 c77 0 112 -5 142 -19z"/>
<path d="M26650 15045 l-85 -85 86 0 85 0 99 71 c149 106 148 99 14 99 l-114
0 -85 -85z"/>
<path d="M15001 14884 c-176 -38 -314 -160 -373 -331 -20 -58 -23 -87 -22
-193 1 -143 19 -209 89 -314 110 -166 337 -248 558 -201 99 21 173 61 248 135
109 107 150 212 150 383 0 120 -9 164 -56 263 -99 204 -347 312 -594 258z
m194 -155 c78 -14 122 -38 172 -91 122 -133 122 -414 0 -549 -87 -96 -270
-123 -397 -59 -127 65 -193 222 -169 402 22 162 103 259 244 294 65 16 79 16
150 3z"/>
<path d="M16070 14886 c-78 -23 -99 -35 -150 -82 -68 -63 -94 -133 -87 -230 6
-83 30 -137 82 -182 48 -43 71 -53 206 -96 160 -52 199 -91 186 -188 -9 -71
-76 -118 -166 -118 -63 0 -107 14 -176 55 -78 47 -101 44 -142 -20 -18 -27
-32 -54 -30 -60 7 -21 111 -85 171 -104 218 -72 420 -4 500 168 16 36 21 65
21 136 0 80 -3 95 -27 136 -41 70 -116 114 -296 173 -106 36 -152 76 -152 133
0 124 152 172 299 95 86 -45 95 -43 132 29 16 34 29 62 27 63 -2 1 -19 13 -38
27 -87 64 -260 95 -360 65z"/>
<path d="M21440 14894 c-214 -39 -352 -149 -416 -332 -51 -147 -42 -309 26
-447 76 -158 207 -251 390 -277 146 -22 354 19 445 87 l30 22 -3 207 -3 206
-169 0 -170 0 0 -54 c0 -85 1 -86 91 -86 l80 0 -3 -97 -3 -98 -55 -19 c-37
-13 -82 -19 -140 -19 -134 0 -220 42 -284 136 -46 68 -66 142 -66 242 0 204
98 333 278 366 83 16 190 -3 269 -47 84 -47 95 -45 139 22 l36 57 -29 24 c-78
65 -187 102 -318 108 -55 2 -111 2 -125 -1z"/>
<path d="M5922 14508 l3 -383 26 -55 c77 -163 243 -253 439 -236 205 18 348
146 380 342 6 33 10 206 10 387 l0 327 -94 0 -95 0 -3 -352 -3 -353 -28 -56
c-85 -174 -338 -174 -424 -1 -16 34 -18 71 -21 400 l-3 362 -95 0 -95 0 3
-382z"/>
<path d="M7040 14365 l0 -525 80 0 80 0 2 362 3 363 79 -100 c121 -152 179
-225 216 -275 19 -25 37 -47 40 -50 3 -3 52 -64 108 -137 56 -73 112 -139 124
-147 14 -10 44 -16 83 -16 l60 0 0 525 0 525 -82 0 -83 0 0 -360 c0 -198 -3
-360 -7 -360 -5 0 -18 15 -29 33 -12 17 -66 88 -121 157 -54 69 -163 208 -242
308 -79 101 -153 192 -164 203 -16 15 -36 19 -84 19 l-63 0 0 -525z"/>
<path d="M8180 14365 l0 -527 263 4 c256 4 264 5 332 32 241 93 362 307 325
577 -27 195 -137 333 -325 405 -68 27 -76 28 -332 32 l-263 4 0 -527z m531
346 c114 -43 186 -155 196 -301 13 -189 -53 -326 -187 -388 -50 -23 -67 -25
-200 -26 l-145 -1 -3 360 c-1 198 0 366 3 374 9 23 264 10 336 -18z"/>
<path d="M9582 14868 c-6 -13 -24 -59 -41 -103 -17 -44 -73 -188 -124 -320
-52 -132 -126 -321 -165 -420 l-70 -180 74 -3 c122 -5 116 -11 200 216 l16 42
218 0 218 0 38 -106 c52 -147 53 -148 158 -153 52 -2 86 1 86 7 0 12 -32 97
-125 332 -40 102 -101 257 -135 345 -34 88 -80 206 -103 262 l-42 103 -96 0
c-89 0 -96 -1 -107 -22z m123 -205 c3 -16 37 -113 76 -216 38 -104 69 -195 69
-203 0 -12 -27 -14 -158 -14 -87 0 -161 3 -165 6 -3 3 6 36 20 72 14 37 36 96
49 132 13 36 33 90 45 120 11 30 25 74 31 98 11 46 22 48 33 5z"/>
<path d="M10370 14365 l0 -525 80 0 80 0 2 378 3 377 28 -48 c16 -26 44 -78
64 -115 262 -496 240 -462 302 -462 26 0 55 6 64 13 9 6 35 48 58 92 23 44 56
107 74 140 17 33 70 132 116 220 l84 159 3 -377 2 -377 85 0 85 0 0 525 0 525
-88 0 c-55 0 -94 -5 -105 -12 -9 -7 -48 -74 -87 -148 -40 -74 -88 -164 -108
-200 -19 -36 -68 -129 -109 -208 -68 -135 -74 -142 -83 -117 -5 14 -10 28 -10
29 0 2 -23 45 -51 97 -28 52 -69 128 -91 169 -81 152 -143 267 -174 325 l-33
60 -95 3 -96 3 0 -526z"/>
<path d="M11760 14365 l0 -525 330 0 330 0 0 75 0 75 -232 2 -233 3 -3 148 -3
147 186 0 185 0 0 75 0 75 -185 0 -186 0 3 148 3 147 233 3 232 2 0 75 0 75
-330 0 -330 0 0 -525z"/>
<path d="M12645 14365 l0 -525 83 0 82 0 0 363 1 362 32 -35 c17 -20 43 -51
57 -69 14 -19 73 -95 132 -170 60 -75 146 -186 193 -247 47 -62 105 -133 129
-158 42 -45 44 -46 104 -46 l62 0 0 525 0 525 -80 0 -80 0 -2 -361 -3 -361
-62 79 c-34 43 -98 124 -142 179 -43 56 -86 110 -94 120 -54 67 -150 189 -192
244 -78 101 -76 100 -152 100 l-68 0 0 -525z"/>
<path d="M13710 14810 l0 -80 160 0 160 0 0 -445 0 -445 90 0 90 0 0 445 0
445 160 0 160 0 0 80 0 80 -410 0 -410 0 0 -80z"/>
<path d="M17040 14365 l0 -525 233 0 c261 0 315 8 425 64 175 88 270 269 259
491 -12 247 -147 417 -377 476 -63 16 -112 19 -307 19 l-233 0 0 -525z m478
360 c129 -30 207 -117 238 -267 27 -127 -2 -268 -73 -355 -21 -27 -57 -54 -99
-74 -64 -32 -72 -33 -210 -37 l-144 -5 0 377 0 376 111 0 c63 0 139 -7 177
-15z"/>
<path d="M18170 14365 l0 -525 330 0 330 0 0 75 0 75 -232 2 -233 3 -3 148 -3
147 186 0 185 0 0 75 0 75 -185 0 -186 0 3 148 3 147 233 3 232 2 0 75 0 75
-330 0 -330 0 0 -525z"/>
<path d="M19420 14365 l0 -525 95 0 95 0 0 525 0 525 -95 0 -95 0 0 -525z"/>
<path d="M19900 14365 l0 -525 85 0 85 0 2 360 3 360 65 -83 c35 -45 114 -145
175 -222 61 -77 157 -199 213 -271 56 -73 109 -135 118 -138 9 -3 42 -6 75 -6
l59 0 0 525 0 525 -85 0 -86 0 3 -360 c2 -198 1 -360 -2 -360 -3 1 -23 24 -45
53 -22 29 -80 104 -130 167 -50 63 -157 199 -238 301 -80 103 -154 189 -163
193 -8 3 -42 6 -75 6 l-59 0 0 -525z"/>
<path d="M22150 14365 l0 -525 330 0 330 0 0 75 0 75 -232 2 -233 3 -3 148 -3
147 186 0 185 0 0 75 0 75 -185 0 -186 0 3 148 3 147 233 3 232 2 0 75 0 75
-330 0 -330 0 0 -525z"/>
<path d="M23030 14365 l0 -525 85 0 85 0 2 360 3 360 115 -146 c63 -81 162
-206 219 -278 57 -72 130 -165 162 -207 32 -42 65 -79 74 -83 9 -3 43 -6 76
-6 l59 0 0 525 0 525 -85 0 -86 0 3 -360 c2 -198 1 -360 -2 -360 -3 1 -45 53
-95 117 -49 64 -135 173 -190 242 -55 70 -129 165 -165 211 -112 146 -117 150
-194 150 l-66 0 0 -525z"/>
<path d="M24210 14365 l0 -525 95 0 95 0 0 525 0 525 -95 0 -95 0 0 -525z"/>
<path d="M24690 14365 l0 -525 330 0 330 0 0 75 0 75 -232 2 -233 3 -3 148 -3
147 186 0 185 0 0 75 0 75 -185 0 -186 0 3 148 3 147 233 3 232 2 0 75 0 75
-330 0 -330 0 0 -525z"/>
<path d="M25580 14365 l0 -525 95 0 95 0 0 205 0 205 63 0 c34 0 67 -4 73 -8
12 -7 94 -128 189 -277 78 -124 80 -125 198 -125 53 0 97 2 97 5 0 12 -256
384 -281 407 -16 15 -29 30 -29 33 0 2 17 12 37 20 58 24 121 82 151 138 24
46 27 63 27 147 0 107 -10 135 -72 196 -81 82 -179 104 -455 104 l-188 0 0
-525z m450 351 c59 -30 75 -60 75 -146 0 -63 -4 -80 -24 -108 -37 -52 -98 -74
-211 -76 l-95 -1 -3 179 -2 178 112 -4 c81 -3 123 -9 148 -22z"/>
<path d="M26600 14365 l0 -525 98 0 97 0 0 525 0 525 -97 0 -98 0 0 -525z"/>
<path d="M27385 14854 c-8 -20 -15 -38 -15 -40 0 -5 -29 -81 -137 -354 -36
-91 -98 -250 -139 -355 -41 -104 -81 -205 -89 -223 -8 -18 -15 -35 -15 -39 0
-11 178 3 193 15 8 7 25 40 37 75 12 34 31 86 42 115 l19 52 219 0 218 0 38
-107 c52 -145 60 -153 169 -153 l85 0 -15 38 c-19 44 -47 113 -110 277 -162
415 -226 580 -255 653 l-33 82 -98 0 -99 0 -15 -36z m125 -170 c0 -8 34 -108
75 -221 41 -114 75 -212 75 -220 0 -10 -33 -13 -160 -13 -146 0 -160 2 -160
18 0 9 25 82 55 162 30 80 64 178 77 217 22 68 38 93 38 57z"/>
<path d="M5060 14360 l0 -520 95 0 95 0 0 215 0 215 195 0 195 0 0 75 0 75
-195 0 -195 0 0 155 0 155 230 0 230 0 0 75 0 75 -325 0 -325 0 0 -520z"/>
<path d="M13822 13431 c-115 -43 -189 -136 -199 -250 -8 -93 15 -169 67 -221
48 -48 69 -59 195 -100 127 -41 161 -58 192 -95 22 -25 25 -36 21 -84 -4 -47
-10 -59 -41 -87 -81 -75 -220 -64 -334 26 -14 11 -33 20 -43 20 -22 0 -59 -38
-84 -84 -19 -36 -19 -37 0 -51 118 -90 175 -110 324 -110 110 0 119 2 181 32
71 35 116 83 152 161 31 67 31 200 0 257 -41 77 -110 122 -264 170 -93 30
-175 78 -183 110 -21 76 19 143 99 165 58 16 113 7 191 -31 83 -41 102 -37
138 30 l29 54 -24 20 c-13 11 -53 34 -89 51 -58 27 -77 31 -170 33 -85 3 -115
0 -158 -16z"/>
<path d="M14816 13439 c-81 -19 -170 -71 -236 -138 -97 -98 -139 -200 -147
-351 -15 -278 156 -506 414 -553 44 -8 101 -10 163 -5 229 17 390 148 455 371
22 77 22 236 0 313 -52 181 -168 300 -344 354 -69 22 -231 26 -305 9z m251
-164 c137 -41 223 -177 223 -355 0 -238 -140 -381 -359 -368 -190 12 -301 145
-303 361 -1 192 80 321 232 368 43 13 154 10 207 -6z"/>
<path d="M18772 13442 c-99 -3 -97 0 -142 -162 -18 -63 -38 -135 -46 -160 -28
-90 -87 -307 -104 -380 l-17 -75 -12 45 c-7 25 -28 90 -46 145 -18 55 -60 188
-94 295 -98 306 -88 290 -171 290 -31 0 -63 -6 -72 -12 -15 -12 -65 -158 -197
-568 -27 -85 -52 -164 -54 -175 -3 -16 -5 -14 -11 10 -7 28 -149 537 -186 668
-9 32 -23 63 -31 68 -7 5 -56 9 -107 9 l-92 0 6 -27 c4 -16 49 -163 100 -328
51 -165 119 -385 152 -490 l58 -190 90 -3 89 -2 94 287 c51 159 105 324 119
368 14 44 28 83 32 88 5 6 137 -387 206 -613 42 -141 31 -130 131 -130 l88 0
13 43 c7 23 29 94 48 157 19 63 41 133 49 155 7 22 27 87 44 145 18 58 40 130
50 160 58 171 113 372 105 378 -5 4 -46 6 -92 4z"/>
<path d="M11300 12920 l0 -520 242 0 c263 0 329 9 418 58 167 92 260 259 260
468 0 197 -94 366 -248 447 -115 61 -156 67 -429 67 l-243 0 0 -520z m497 357
c157 -41 254 -225 224 -425 -14 -94 -38 -148 -91 -206 -71 -77 -110 -90 -287
-94 l-153 -4 0 371 0 371 128 0 c74 0 149 -6 179 -13z"/>
<path d="M12440 12920 l0 -520 325 0 325 0 0 75 0 75 -230 0 -230 0 0 150 0
150 180 0 180 0 0 70 0 70 -180 0 -180 0 0 150 0 150 230 0 230 0 0 75 0 75
-325 0 -325 0 0 -520z"/>
<path d="M15698 12932 c-2 -280 -2 -516 0 -525 3 -14 18 -17 98 -17 l94 0 0
215 0 215 195 0 195 0 0 75 0 75 -195 0 -195 0 0 160 0 160 230 0 230 0 0 75
0 75 -325 0 -325 0 -2 -508z"/>
<path d="M16480 13365 l0 -74 158 -3 157 -3 3 -442 2 -443 90 0 90 0 2 443 3
442 158 3 157 3 0 74 0 75 -410 0 -410 0 0 -75z"/>
<path d="M19232 13343 c-23 -54 -77 -192 -122 -308 -44 -115 -85 -219 -90
-230 -10 -22 -84 -212 -124 -319 -14 -37 -26 -72 -26 -77 0 -5 38 -9 85 -9 74
0 87 3 105 22 11 12 20 26 20 32 0 15 62 179 73 194 7 9 63 12 218 12 l209 0
15 -32 c8 -18 26 -68 41 -110 38 -111 47 -118 149 -118 48 0 85 4 85 10 0 5
-10 33 -21 62 -12 29 -32 80 -44 113 -13 33 -51 130 -85 215 -34 85 -77 196
-97 245 -19 50 -62 159 -95 243 l-60 152 -98 0 -98 0 -40 -97z m221 -320 c43
-117 77 -217 77 -223 0 -6 -58 -10 -165 -10 l-164 0 34 93 c19 50 55 154 82
229 26 75 51 134 54 130 3 -4 40 -102 82 -219z"/>
<path d="M20050 12921 l0 -521 95 0 95 0 2 203 3 202 46 3 c25 2 56 -1 70 -6
27 -11 30 -15 171 -232 52 -80 102 -151 110 -158 11 -9 46 -12 117 -10 l101 3
-95 140 c-51 77 -98 145 -102 150 -5 6 -23 34 -42 63 -18 29 -43 59 -54 67
-24 17 -25 15 30 39 55 24 121 89 147 145 17 37 21 65 21 141 -1 88 -3 98 -31
142 -36 57 -78 90 -153 120 -51 20 -77 23 -293 26 l-238 4 0 -521z m448 350
c58 -30 82 -71 82 -144 0 -63 -15 -101 -52 -132 -48 -41 -72 -49 -180 -53
l-108 -5 0 175 c0 96 3 178 8 182 4 5 52 6 108 3 76 -3 110 -10 142 -26z"/>
<path d="M21048 12920 l2 -520 325 0 325 0 0 75 0 75 -230 0 -230 0 0 150 0
150 180 0 180 0 0 70 0 70 -180 0 -180 0 0 150 0 150 230 0 230 0 0 75 0 75
-327 0 -328 0 3 -520z"/>
<path d="M6864 9710 c-68 -27 -118 -197 -218 -742 -62 -335 -74 -388 -91 -382
-7 3 -41 58 -75 122 -35 64 -80 149 -101 187 -77 143 -197 258 -316 307 -49
19 -75 23 -173 23 l-115 0 -89 -43 c-143 -70 -251 -194 -314 -360 -23 -59 -26
-82 -26 -197 0 -109 3 -139 22 -189 75 -204 241 -365 493 -478 235 -105 497
-163 899 -200 174 -16 862 -15 1165 1 593 31 743 34 1735 35 831 1 1050 4
1068 14 32 19 55 57 47 82 -14 44 -44 51 -247 62 -238 12 -1870 4 -2053 -11
-469 -37 -1140 -56 -1460 -42 -643 29 -1061 126 -1295 302 -163 123 -250 320
-220 497 33 197 184 359 351 378 137 16 261 -57 370 -218 22 -31 39 -59 39
-63 0 -3 11 -22 24 -43 12 -20 45 -77 71 -127 26 -49 64 -119 83 -155 19 -36
48 -82 64 -102 54 -69 136 -100 157 -60 26 50 63 198 90 362 6 36 19 119 30
185 18 107 46 233 137 600 15 61 27 136 28 168 1 50 -2 61 -23 78 -26 21 -27
21 -57 9z"/>
<path d="M8991 9504 c-42 -51 -94 -197 -149 -419 l-48 -190 -39 -3 c-129 -9
-309 -60 -390 -109 -133 -83 -206 -219 -190 -352 13 -102 42 -151 110 -182 86
-40 201 -16 325 66 102 68 177 156 250 297 53 100 68 121 97 133 44 18 49 36
28 91 -24 64 -17 110 56 354 70 238 80 301 54 330 -29 32 -69 26 -104 -16z
m-295 -879 c-61 -124 -181 -216 -302 -231 -48 -6 -52 -5 -57 17 -41 154 78
273 312 313 73 12 76 12 79 -7 2 -11 -12 -52 -32 -92z"/>
<path d="M26615 9339 c-27 -11 -147 -68 -265 -126 -118 -58 -255 -121 -305
-140 -49 -19 -121 -51 -158 -71 -56 -29 -70 -33 -77 -21 -13 21 -76 -5 -125
-52 -38 -36 -135 -87 -135 -71 0 5 7 17 15 28 35 46 4 139 -58 171 -46 23
-141 27 -226 9 -157 -33 -460 -219 -643 -394 l-66 -64 -23 31 c-26 36 -58 40
-83 12 -15 -16 -22 -18 -48 -9 -30 11 -33 9 -69 -33 -21 -24 -39 -47 -39 -50
0 -14 -32 -18 -50 -6 -26 16 -46 3 -85 -56 -37 -56 -68 -76 -90 -57 -12 10
-21 9 -49 -4 -47 -22 -102 -20 -138 5 -22 16 -38 20 -65 16 -34 -6 -52 -14
-158 -68 -70 -37 -106 -53 -220 -100 -55 -23 -131 -55 -170 -71 -38 -16 -111
-49 -161 -73 -50 -25 -98 -45 -107 -45 -25 0 -30 -37 -10 -65 16 -23 23 -25
62 -20 24 3 103 34 177 70 73 36 138 65 143 65 5 0 45 15 88 33 156 67 416
144 455 136 14 -3 11 -12 -15 -51 -52 -75 -80 -103 -117 -118 -19 -7 -44 -21
-55 -30 -11 -10 -45 -25 -75 -35 -136 -44 -426 -181 -952 -452 -16 -8 -28 -19
-28 -24 0 -5 -6 -9 -14 -9 -8 0 -45 -21 -83 -46 -37 -25 -113 -71 -168 -101
-55 -31 -118 -71 -141 -89 -23 -19 -44 -34 -47 -34 -9 0 -151 -83 -164 -96
-21 -20 -15 -55 13 -81 29 -26 61 -25 118 4 15 8 76 34 135 58 58 23 135 56
171 73 80 38 260 112 272 112 5 0 82 33 171 74 89 41 194 84 232 96 88 29 149
53 155 61 11 15 166 88 380 180 63 28 144 66 180 86 36 20 90 49 120 65 99 51
276 172 312 213 19 22 43 55 52 73 24 46 80 69 251 103 77 15 182 42 233 59
51 18 95 30 98 27 6 -6 -39 -40 -216 -165 -63 -45 -164 -120 -225 -167 -60
-47 -123 -96 -139 -108 -16 -12 -37 -29 -46 -37 -10 -8 -27 -22 -37 -31 -10
-8 -43 -29 -73 -45 -30 -17 -77 -45 -105 -62 -27 -17 -72 -36 -100 -43 -74
-17 -95 -27 -95 -44 0 -8 5 -15 10 -15 6 0 10 -6 10 -14 0 -23 71 -29 139 -12
74 19 144 61 348 209 87 63 178 126 203 140 25 14 54 34 65 44 11 10 41 35 67
56 26 21 53 44 60 50 7 7 67 54 133 104 66 49 146 115 178 145 63 61 88 71
227 89 83 10 275 48 348 69 20 5 58 10 84 10 26 0 78 5 115 10 199 30 276 40
280 36 2 -2 -17 -12 -44 -22 -500 -184 -794 -315 -1048 -469 -185 -112 -237
-152 -276 -214 -37 -58 -37 -83 2 -115 44 -38 109 -35 256 11 65 20 143 42
173 49 105 25 126 31 310 93 102 34 255 90 340 125 85 35 205 82 265 106 61
23 175 76 255 118 80 42 159 82 175 90 52 26 124 85 151 124 33 47 28 73 -25
128 -21 22 -37 40 -37 41 1 0 10 2 21 4 11 2 74 22 140 43 127 42 175 55 350
98 61 15 112 30 115 34 3 4 24 10 48 13 25 3 50 13 58 24 12 16 15 16 27 3 6
-8 23 -14 37 -12 46 5 290 76 290 84 0 5 -10 6 -22 3 -13 -3 -46 -9 -75 -14
-57 -9 -64 3 -8 13 19 4 35 12 35 18 0 7 -12 8 -32 4 -18 -4 -82 -13 -141 -22
-59 -8 -136 -23 -170 -33 -34 -11 -84 -22 -112 -25 -65 -8 -225 -45 -247 -57
-10 -5 -28 -9 -40 -9 -27 0 -91 -19 -166 -49 -29 -12 -64 -21 -78 -21 -13 0
-57 -12 -97 -27 -68 -25 -83 -27 -294 -31 -123 -2 -223 0 -223 5 0 4 27 28 60
53 32 25 59 51 59 58 1 7 -9 26 -21 42 -19 27 -28 30 -74 30 -30 0 -56 5 -62
13 -15 18 63 65 188 113 105 40 204 87 265 126 22 14 57 31 79 39 21 8 50 25
64 38 14 13 38 27 52 31 35 9 26 25 -13 23 -18 -1 -23 1 -12 4 11 3 24 9 30
14 17 17 -59 8 -110 -12z m-1126 -355 c6 -5 -19 -61 -43 -93 -13 -17 -56 -67
-96 -111 -72 -78 -78 -82 -255 -169 -151 -75 -200 -94 -308 -120 -70 -17 -132
-31 -137 -31 -22 0 -7 29 40 75 28 28 50 58 50 70 0 38 31 65 188 170 186 123
301 182 380 197 31 5 71 13 87 18 26 6 83 3 94 -6z m1854 -51 c-7 -2 -19 -2
-25 0 -7 3 -2 5 12 5 14 0 19 -2 13 -5z m-709 -297 l29 -11 -27 -32 c-32 -37
-203 -139 -366 -217 -243 -116 -483 -209 -970 -376 -165 -56 -350 -99 -350
-82 0 12 56 55 145 113 50 32 95 62 101 67 67 58 307 176 469 232 44 15 112
43 152 63 97 49 232 102 449 175 100 34 196 69 215 77 37 16 101 13 153 -9z
m-2444 -451 c-37 -39 -257 -168 -430 -252 -85 -41 -213 -103 -285 -138 -71
-34 -157 -70 -189 -80 -33 -9 -90 -32 -128 -51 -61 -31 -75 -34 -155 -34 -53
0 -83 4 -78 9 18 17 189 99 325 156 36 15 95 43 132 61 37 19 73 34 80 34 7 0
62 27 122 60 144 79 167 85 201 54 36 -33 47 -31 82 19 50 69 81 94 131 107
25 6 78 27 116 46 85 42 109 44 76 9z"/>
<path d="M24335 9201 c-11 -5 -46 -11 -77 -15 -34 -4 -71 -17 -92 -31 -19 -13
-67 -35 -107 -50 -40 -14 -144 -63 -233 -109 -89 -45 -189 -94 -224 -107 -34
-13 -75 -34 -90 -46 -25 -21 -26 -24 -9 -37 9 -7 17 -18 17 -25 0 -27 102 -5
196 43 25 13 38 14 59 6 15 -6 49 -8 75 -4 46 6 48 5 69 -29 25 -41 37 -47 98
-47 44 0 44 0 41 32 -3 30 0 34 39 48 23 8 55 25 72 38 17 12 55 31 86 43 31
11 68 31 83 44 l27 23 -20 22 c-19 21 -26 22 -115 18 l-95 -5 65 31 c36 17
103 46 148 65 77 31 112 59 84 69 -7 2 -12 10 -12 18 0 16 -51 18 -85 5z"/>
<path d="M27725 9040 c-3 -5 -1 -10 4 -10 6 0 11 5 11 10 0 6 -2 10 -4 10 -3
0 -8 -4 -11 -10z"/>
<path d="M9320 8810 c-25 -50 -42 -171 -33 -250 l6 -58 -44 -13 c-90 -26 -130
-68 -114 -118 8 -26 59 -36 133 -25 70 10 154 10 294 -1 99 -7 109 -6 150 14
62 33 92 64 164 173 120 182 107 179 661 152 165 -8 183 -1 183 75 0 34 -5 51
-15 55 -44 17 -255 27 -470 24 -222 -4 -244 -6 -299 -27 -75 -30 -127 -83
-171 -172 -19 -39 -47 -82 -62 -95 -28 -25 -128 -62 -138 -52 -3 3 12 34 34
69 22 35 45 86 51 113 10 44 9 53 -8 75 -38 51 -165 101 -259 101 -40 0 -44
-3 -63 -40z m160 -154 c0 -14 -10 -30 -25 -40 -25 -16 -25 -16 -25 17 0 38 6
47 32 47 12 0 18 -7 18 -24z"/>
<path d="M7722 8811 c-49 -18 -142 -78 -202 -131 -56 -48 -68 -58 -121 -98
-31 -23 -61 -42 -67 -42 -18 0 -42 55 -42 95 0 25 8 44 30 67 18 19 30 42 30
58 0 23 -6 29 -39 38 -92 28 -202 7 -291 -55 -74 -52 -100 -104 -100 -199 0
-40 3 -79 6 -88 10 -25 94 -20 166 9 34 14 68 25 76 25 7 0 34 -17 58 -37 37
-30 56 -37 100 -41 85 -7 137 20 281 151 78 70 183 137 216 137 8 0 18 -8 22
-17 31 -76 49 -145 65 -250 23 -151 29 -163 79 -163 46 0 51 10 51 115 0 157
-27 290 -73 361 -47 72 -151 100 -245 65z m-579 -167 c-6 -16 -52 -38 -61 -29
-3 3 3 14 13 25 22 24 57 28 48 4z"/>
<path d="M23840 8616 c0 -13 7 -26 15 -30 8 -3 15 -12 15 -21 0 -9 9 -15 25
-15 31 0 34 34 6 68 -26 30 -61 30 -61 -2z"/>
<path d="M6158 7271 c-2 -73 0 -140 4 -149 4 -9 7 18 7 61 1 76 1 78 34 97 40
25 42 25 67 0 16 -16 20 -33 20 -95 0 -48 4 -75 11 -75 7 0 10 27 8 85 -3 70
-7 87 -24 99 -26 20 -56 20 -81 1 -29 -22 -31 -19 -33 42 -2 105 -10 66 -13
-66z"/>
<path d="M5915 7357 c-37 -37 -51 -87 -40 -144 4 -22 20 -50 40 -70 29 -29 39
-33 88 -33 40 0 61 5 78 20 28 22 14 27 -15 5 -24 -18 -82 -19 -116 -2 -52 26
-74 114 -46 182 25 58 113 85 164 49 12 -8 22 -11 22 -5 0 18 -37 31 -90 31
-46 0 -56 -4 -85 -33z"/>
<path d="M6532 7378 c6 -18 28 -21 28 -4 0 9 -7 16 -16 16 -9 0 -14 -5 -12
-12z"/>
<path d="M6942 7378 c6 -18 28 -21 28 -4 0 9 -7 16 -16 16 -9 0 -14 -5 -12
-12z"/>
<path d="M7515 7354 c9 -22 35 -85 58 -142 23 -56 46 -101 52 -99 10 4 115
252 115 271 -1 21 -30 -28 -50 -83 -12 -31 -27 -69 -34 -86 -7 -16 -17 -41
-22 -54 -9 -21 -16 -10 -60 99 -27 68 -55 125 -62 128 -10 3 -9 -6 3 -34z"/>
<path d="M8260 7250 l0 -140 68 0 c82 0 128 21 154 70 33 63 17 146 -37 188
-23 18 -41 22 -106 22 l-79 0 0 -140z m172 110 c59 -46 64 -149 10 -202 -25
-26 -39 -31 -96 -35 l-66 -6 0 132 0 131 64 0 c48 0 69 -5 88 -20z"/>
<path d="M9010 7250 c0 -79 3 -140 6 -137 4 4 7 35 8 69 l1 63 84 3 c98 3 102
0 99 -75 -1 -29 1 -56 5 -60 4 -3 6 59 5 138 -1 79 -3 114 -5 77 l-4 -68 -95
0 -94 0 1 60 c1 34 -1 64 -5 67 -3 3 -6 -58 -6 -137z"/>
<path d="M10136 7374 c-39 -38 -24 -105 26 -119 82 -23 103 -47 86 -97 -13
-36 -63 -47 -109 -24 -37 18 -54 12 -25 -10 11 -8 41 -14 66 -14 62 0 93 30
88 86 -3 37 -6 40 -54 59 -29 12 -59 27 -68 34 -21 18 -20 54 2 74 22 20 73
22 90 5 6 -6 15 -8 19 -4 13 12 -20 26 -64 26 -25 0 -48 -6 -57 -16z"/>
<path d="M6820 7348 c0 -26 -5 -38 -22 -46 l-23 -11 22 0 c21 -1 22 -6 25 -88
l3 -88 29 -3 c16 -2 34 2 40 8 8 9 6 11 -12 5 -41 -12 -53 10 -51 92 l2 73 35
0 c41 0 40 7 -3 13 -26 3 -30 8 -30 35 0 16 -3 34 -7 38 -5 4 -8 -8 -8 -28z"/>
<path d="M9911 7349 c-1 -28 -6 -38 -23 -44 l-23 -8 23 -4 c21 -4 22 -9 22
-88 0 -92 12 -111 58 -94 30 12 28 21 -4 13 -36 -9 -44 7 -44 94 l0 72 38 1
37 2 -35 6 c-32 5 -36 10 -41 46 l-6 40 -2 -36z"/>
<path d="M23520 7243 c0 -65 -4 -123 -8 -130 -11 -17 -59 -33 -79 -26 -11 4
-14 3 -9 -5 11 -18 61 -14 87 7 23 18 24 27 27 145 3 86 0 126 -7 126 -7 0
-11 -40 -11 -117z"/>
<path d="M23830 7220 c0 -87 4 -140 10 -140 6 0 10 31 10 74 0 66 3 77 22 90
60 42 101 2 97 -93 -1 -34 1 -64 4 -68 11 -11 8 147 -3 168 -14 24 -76 26
-102 2 -17 -15 -18 -14 -18 45 0 35 -4 62 -10 62 -6 0 -10 -53 -10 -140z"/>
<path d="M24350 7220 c0 -87 4 -140 10 -140 6 0 10 28 10 65 l0 64 68 4 67 3
-67 2 -68 2 0 65 0 64 78 4 77 3 -87 2 -88 2 0 -140z"/>
<path d="M25060 7311 l0 -50 -53 6 c-50 5 -55 3 -75 -22 -32 -40 -31 -117 3
-150 28 -29 61 -32 94 -9 19 14 25 14 32 3 4 -8 9 46 11 125 2 76 0 140 -4
143 -5 2 -8 -18 -8 -46z m-18 -68 c26 -24 25 -113 -2 -138 -23 -21 -72 -24
-93 -6 -34 28 -28 120 10 149 23 17 63 15 85 -5z"/>
<path d="M25280 7305 c0 -53 -1 -55 -20 -45 -12 6 -37 10 -57 8 -48 -4 -77
-42 -75 -99 3 -80 56 -119 116 -85 23 14 31 14 37 4 5 -7 9 51 9 130 0 78 -2
142 -5 142 -3 0 -5 -25 -5 -55z m-18 -62 c12 -11 18 -30 18 -59 0 -57 -7 -72
-42 -90 -61 -32 -113 34 -88 112 18 53 74 72 112 37z"/>
<path d="M25610 7355 c0 -11 81 -213 102 -252 6 -13 15 -23 19 -23 4 0 29 53
57 119 59 141 66 161 55 161 -5 0 -31 -54 -58 -121 -27 -66 -52 -122 -55 -124
-3 -2 -25 46 -50 106 -41 103 -69 157 -70 134z"/>
<path d="M6370 7210 c0 -60 4 -100 10 -100 6 0 10 31 10 74 0 69 2 76 27 95
15 13 34 19 45 16 10 -4 18 -2 18 4 0 21 -58 12 -74 -11 l-16 -22 0 22 c0 12
-4 22 -10 22 -6 0 -10 -40 -10 -100z"/>
<path d="M6540 7210 c0 -60 4 -100 10 -100 6 0 10 40 10 100 0 60 -4 100 -10
100 -6 0 -10 -40 -10 -100z"/>
<path d="M6643 7295 c-25 -18 -30 -57 -10 -72 6 -6 24 -13 39 -17 27 -6 58
-31 58 -46 0 -33 -72 -53 -99 -27 -11 10 -13 9 -9 -3 6 -21 84 -26 103 -6 33
32 4 96 -44 96 -22 0 -50 30 -44 47 9 22 51 35 75 22 16 -9 19 -8 16 3 -7 19
-59 21 -85 3z"/>
<path d="M6950 7210 c0 -60 4 -100 10 -100 6 0 10 40 10 100 0 60 -4 100 -10
100 -6 0 -10 -40 -10 -100z"/>
<path d="M7063 7298 c-13 -6 -23 -15 -23 -19 0 -5 16 -1 35 8 33 16 36 15 55
-2 17 -15 20 -31 20 -97 0 -50 4 -78 11 -78 7 0 10 28 8 86 -3 71 -7 88 -23
100 -23 16 -52 17 -83 2z"/>
<path d="M7230 7210 c0 -60 4 -100 10 -100 6 0 10 31 10 73 0 84 15 107 68
107 42 0 54 -25 51 -106 -1 -35 1 -67 4 -71 4 -3 7 32 7 80 0 77 -2 87 -22
101 -12 9 -32 16 -43 16 -11 0 -31 -7 -43 -16 -20 -14 -22 -14 -22 0 0 9 -4
16 -10 16 -6 0 -10 -40 -10 -100z"/>
<path d="M7779 7290 c-29 -24 -22 -25 19 -4 23 11 36 12 51 5 25 -14 31 -34
27 -101 -3 -55 1 -80 13 -80 7 0 5 134 -3 166 -10 37 -71 45 -107 14z"/>
<path d="M7960 7305 c-3 -5 -2 -53 1 -105 l5 -95 2 75 c2 84 19 110 70 110 44
0 52 -16 52 -102 0 -50 4 -78 11 -78 19 0 7 163 -13 183 -20 21 -58 22 -84 2
-25 -19 -32 -19 -36 3 -2 9 -6 13 -8 7z"/>
<path d="M8575 7285 c-20 -19 -25 -34 -25 -74 0 -68 28 -102 87 -103 43 0 63
7 63 23 0 6 -7 6 -19 -1 -50 -26 -103 0 -115 58 l-8 32 76 0 c68 0 76 2 76 19
0 10 -9 30 -21 45 -28 35 -80 36 -114 1z m105 -16 c19 -34 11 -39 -55 -39
l-65 0 12 25 c7 15 24 29 42 34 37 9 53 5 66 -20z"/>
<path d="M8760 7210 c0 -60 4 -100 10 -100 6 0 10 31 10 73 0 82 16 110 65
110 14 0 25 3 25 8 0 15 -47 10 -64 -6 -8 -8 -17 -15 -20 -15 -3 0 -6 7 -6 15
0 8 -4 15 -10 15 -6 0 -10 -40 -10 -100z"/>
<path d="M9327 7290 c-15 -12 -29 -36 -33 -55 -7 -42 11 -102 36 -115 34 -18
120 -10 120 11 0 6 -8 5 -19 -1 -51 -27 -121 11 -121 65 0 24 2 25 70 25 68 0
70 1 70 25 0 31 -36 65 -71 65 -14 0 -38 -9 -52 -20z m89 -12 c7 -5 14 -18 17
-28 5 -18 0 -20 -59 -20 -72 0 -83 14 -37 49 26 21 53 21 79 -1z"/>
<path d="M9513 7210 c1 -87 2 -92 4 -28 4 73 5 78 35 99 28 21 33 21 57 8 24
-14 26 -20 29 -97 2 -49 7 -82 13 -82 7 0 10 30 8 86 -3 71 -7 88 -23 100 -25
18 -54 18 -88 0 -24 -13 -27 -12 -31 2 -3 10 -4 -30 -4 -88z"/>
<path d="M9730 7292 c-35 -28 -21 -64 31 -82 50 -18 69 -42 53 -67 -13 -22
-60 -29 -80 -12 -8 6 -18 9 -21 5 -12 -12 20 -26 59 -26 29 0 41 6 54 25 23
36 10 60 -46 83 -52 22 -61 39 -34 66 18 19 28 20 56 5 23 -12 39 -2 18 11
-24 15 -66 11 -90 -8z"/>
<path d="M23629 7251 c-20 -16 -24 -28 -24 -76 0 -50 3 -60 28 -81 72 -62 168
13 143 111 -16 62 -96 87 -147 46z m110 -17 c26 -33 28 -94 4 -122 -49 -58
-123 -22 -123 59 0 80 75 119 119 63z"/>
<path d="M24050 7263 c-3 -63 -1 -176 4 -180 3 -4 6 25 6 63 0 81 20 114 70
114 39 0 50 -23 50 -109 0 -41 4 -71 10 -71 6 0 10 33 10 78 0 64 -4 82 -18
95 -21 19 -64 22 -94 6 -16 -9 -23 -8 -29 2 -6 11 -9 11 -9 2z"/>
<path d="M24560 7175 c0 -114 17 -127 22 -17 4 84 0 112 -13 112 -5 0 -9 -43
-9 -95z"/>
<path d="M24606 7262 c-2 -4 11 -6 30 -4 19 2 34 6 34 8 0 8 -59 4 -64 -4z"/>
<path d="M24731 7244 c-35 -44 -25 -128 18 -161 22 -17 71 -15 101 3 25 15 25
15 -10 8 -88 -18 -117 11 -112 108 3 38 28 60 66 56 25 -2 35 -11 50 -41 20
-41 32 -43 22 -3 -9 38 -34 56 -76 56 -30 0 -43 -6 -59 -26z"/>
<path d="M25361 7218 c11 -29 29 -70 40 -91 17 -35 18 -40 4 -74 -17 -41 -18
-43 -7 -43 4 0 12 12 19 28 78 181 93 218 89 227 -2 5 -8 -1 -14 -15 -29 -70
-63 -142 -66 -139 -2 2 -18 39 -36 82 -35 85 -62 108 -29 25z"/>
<path d="M25904 7262 c-42 -29 -55 -92 -29 -142 25 -48 65 -61 121 -40 36 14
26 22 -14 11 -17 -5 -41 -7 -52 -4 -47 12 -67 116 -30 153 35 35 100 19 100
-25 0 -13 5 -27 10 -30 16 -10 12 38 -6 63 -11 16 -25 22 -52 22 -20 0 -42 -4
-48 -8z"/>
<path d="M26084 7245 c-11 -17 -14 -33 -9 -52 13 -45 11 -102 -2 -108 -17 -6
-16 -50 0 -64 42 -34 142 -18 153 24 10 41 0 50 -67 60 -46 7 -64 14 -64 25 0
10 14 17 42 21 54 7 73 24 73 65 0 20 5 34 13 35 26 2 -40 17 -80 18 -35 1
-45 -4 -59 -24z m92 7 c24 -15 26 -50 5 -71 -39 -39 -91 -22 -91 29 0 14 5 31
12 38 13 13 57 16 74 4z m31 -174 c17 -14 -1 -46 -33 -58 -33 -13 -82 -2 -95
21 -7 14 -5 23 11 39 17 17 28 19 63 14 23 -4 48 -11 54 -16z"/>
<path d="M26294 7255 c-10 -8 -14 -15 -7 -15 6 0 15 5 18 10 9 14 58 13 73 -2
7 -7 12 -24 12 -39 0 -24 -4 -27 -46 -34 -73 -11 -102 -59 -58 -96 16 -13 84
-4 84 12 0 6 -7 6 -20 -1 -33 -18 -79 19 -61 48 8 13 56 32 82 32 16 0 19 -7
19 -45 0 -26 5 -45 11 -45 18 0 8 168 -11 180 -23 14 -74 12 -96 -5z"/>
<path d="M7060 7197 c-19 -10 -25 -20 -25 -47 0 -33 2 -35 39 -38 21 -2 43 1
47 5 5 5 -6 7 -25 5 -27 -3 -37 0 -46 18 -14 27 0 46 44 59 20 6 24 9 11 10
-11 0 -31 -5 -45 -12z"/>
<path d="M7783 7198 c-50 -24 -35 -88 20 -88 18 0 39 5 47 10 11 7 6 8 -17 4
-36 -7 -63 8 -63 36 0 15 21 31 60 43 10 4 8 5 -5 6 -11 0 -30 -5 -42 -11z"/>
<path d="M6805 6906 c-43 -19 -66 -49 -75 -96 -17 -96 31 -169 117 -177 48 -5
113 16 113 35 0 22 -23 29 -48 16 -39 -20 -67 -17 -101 12 -27 22 -31 32 -31
74 0 37 6 56 24 76 23 28 51 33 126 22 34 -4 38 25 5 40 -34 16 -92 15 -130
-2z"/>
<path d="M7058 6904 c-42 -22 -71 -87 -66 -144 6 -55 30 -93 75 -115 63 -31
148 -12 187 42 48 66 22 184 -48 217 -42 20 -112 20 -148 0z m121 -39 c54 -27
65 -113 22 -167 -15 -18 -29 -23 -66 -23 -53 0 -80 23 -90 79 -17 88 59 151
134 111z"/>
<path d="M7369 6897 c-44 -29 -59 -60 -59 -122 0 -62 28 -111 75 -131 72 -30
144 -12 185 46 19 26 22 41 18 95 -4 71 -21 99 -75 121 -49 21 -105 17 -144
-9z m142 -46 c24 -24 29 -38 29 -76 0 -38 -5 -52 -29 -76 -20 -20 -39 -29 -61
-29 -49 0 -90 47 -90 102 0 95 88 141 151 79z"/>
<path d="M7710 6775 l0 -145 71 0 c122 0 179 46 179 144 0 99 -58 146 -179
146 l-71 0 0 -145z m150 90 c16 -8 34 -24 40 -34 15 -28 12 -93 -5 -117 -18
-27 -65 -46 -101 -42 l-29 3 -3 89 c-2 49 -1 95 2 103 7 18 60 17 96 -2z"/>
<path d="M8010 6908 c0 -7 -2 -73 -3 -146 l-2 -132 88 0 c80 0 87 2 87 20 0
18 -7 20 -60 20 l-60 0 0 45 0 45 50 0 c38 0 50 4 50 15 0 11 -12 15 -50 15
l-50 0 0 45 0 45 60 0 c53 0 60 2 60 20 0 18 -7 20 -85 20 -61 0 -85 -4 -85
-12z"/>
<path d="M8310 6776 l0 -146 25 0 c24 0 25 3 25 54 l0 54 56 4 c45 4 60 10 75
29 26 34 24 82 -5 116 -21 25 -31 28 -100 31 l-76 4 0 -146z m134 88 c20 -19
21 -58 2 -73 -8 -7 -29 -13 -48 -14 l-33 -2 -3 53 -3 52 35 0 c19 0 42 -7 50
-16z"/>
<path d="M8550 6775 l0 -145 85 0 c78 0 85 2 85 20 0 16 -8 19 -57 22 l-58 3
-3 123 -3 122 -24 0 -25 0 0 -145z"/>
<path d="M8831 6893 c-7 -16 -30 -73 -51 -128 -21 -55 -42 -108 -46 -118 -6
-16 -2 -18 22 -15 22 2 30 10 38 36 9 32 10 32 71 32 60 0 62 -1 78 -35 11
-23 24 -35 37 -35 11 0 20 3 20 8 0 4 -23 69 -52 144 -49 127 -55 138 -79 138
-19 0 -29 -8 -38 -27z m61 -91 c10 -26 18 -50 18 -54 0 -5 -20 -8 -44 -8 l-45
0 21 61 c11 33 23 57 26 54 4 -3 14 -27 24 -53z"/>
<path d="M8980 6901 c0 -16 8 -20 43 -23 l42 -3 3 -122 3 -123 24 0 25 0 0
125 0 125 45 0 c38 0 45 3 45 20 0 19 -7 20 -115 20 -107 0 -115 -1 -115 -19z"/>
<path d="M9230 6900 c0 -18 7 -20 70 -20 39 0 70 -3 70 -7 0 -5 -15 -29 -33
-54 -96 -136 -117 -169 -117 -178 0 -7 40 -11 110 -11 103 0 110 1 110 20 0
18 -7 20 -70 20 -43 0 -70 4 -70 11 0 8 42 70 78 114 30 37 62 92 62 107 0 16
-11 18 -105 18 -98 0 -105 -1 -105 -20z"/>
<path d="M9490 6775 l0 -145 25 0 25 0 0 145 0 145 -25 0 -25 0 0 -145z"/>
<path d="M23615 6868 c-11 -7 -25 -17 -31 -23 -56 -55 -46 -185 18 -229 43
-31 178 -14 178 21 0 19 -29 28 -43 14 -6 -6 -30 -11 -53 -11 -57 0 -84 33
-84 102 0 39 5 54 26 74 21 22 32 25 67 22 23 -3 50 -8 59 -12 23 -10 35 18
18 39 -15 18 -125 20 -155 3z"/>
<path d="M23830 6740 l0 -140 85 0 c78 0 85 2 85 20 0 18 -7 20 -60 20 l-60 0
0 40 0 40 50 0 c43 0 50 3 50 20 0 17 -7 20 -50 20 l-50 0 0 40 0 40 60 0 c53
0 60 2 60 20 0 18 -7 20 -85 20 l-85 0 0 -140z"/>
<path d="M24105 6869 c-88 -43 -86 -218 3 -258 31 -15 122 -13 150 3 40 22 62
66 62 126 0 60 -22 104 -62 126 -27 15 -124 17 -153 3z m140 -55 c20 -21 25
-38 25 -76 0 -66 -30 -98 -94 -98 -59 0 -86 32 -86 100 0 68 27 100 86 100 36
0 50 -5 69 -26z"/>
<path d="M24440 6740 l0 -142 91 4 c90 3 91 3 125 40 31 34 34 43 34 98 0 55
-3 64 -34 98 -34 37 -35 37 -125 40 l-91 4 0 -142z m172 73 c39 -38 40 -105 1
-145 -22 -23 -35 -28 -75 -28 l-48 0 0 100 0 100 47 0 c37 0 53 -6 75 -27z"/>
<path d="M24740 6740 l0 -140 85 0 c78 0 85 2 85 20 0 18 -7 20 -60 20 l-60 0
0 40 0 40 50 0 c43 0 50 3 50 20 0 17 -7 20 -50 20 l-50 0 0 40 0 40 60 0 c53
0 60 2 60 20 0 18 -7 20 -85 20 l-85 0 0 -140z"/>
<path d="M25040 6740 l0 -140 25 0 c23 0 25 3 25 49 l0 48 50 5 c66 7 100 37
100 88 0 25 -8 45 -25 64 -22 24 -31 26 -100 26 l-75 0 0 -140z m128 94 c45
-31 15 -94 -45 -94 l-33 0 0 55 c0 53 1 55 28 55 15 0 38 -7 50 -16z"/>
<path d="M25280 6740 l0 -140 85 0 c78 0 85 2 85 20 0 18 -7 20 -60 20 l-60 0
0 120 0 120 -25 0 -25 0 0 -140z"/>
<path d="M25558 6847 c-14 -30 -46 -109 -84 -209 l-14 -38 28 0 c23 0 30 6 37
33 10 31 11 32 70 32 58 0 60 -1 74 -32 11 -24 21 -33 38 -33 29 0 30 -6 -35
163 -42 108 -48 117 -72 117 -20 0 -30 -8 -42 -33z m78 -123 c6 -23 4 -24 -41
-24 -34 0 -46 4 -42 13 2 6 13 36 23 65 l19 53 18 -42 c9 -23 20 -52 23 -65z"/>
<path d="M25710 6860 c0 -17 7 -20 45 -20 l45 0 0 -120 0 -120 25 0 25 0 0
120 0 120 45 0 c38 0 45 3 45 20 0 19 -7 20 -115 20 -108 0 -115 -1 -115 -20z"/>
<path d="M25960 6860 c0 -18 7 -20 70 -20 39 0 70 -2 70 -5 0 -3 -34 -53 -75
-112 -41 -58 -75 -109 -75 -114 0 -5 50 -9 110 -9 103 0 110 1 110 20 0 18 -7
20 -71 20 -56 0 -70 3 -66 14 3 7 35 54 71 103 36 50 66 98 66 107 0 14 -15
16 -105 16 -98 0 -105 -1 -105 -20z"/>
<path d="M26220 6740 l0 -140 25 0 25 0 0 140 0 140 -25 0 -25 0 0 -140z"/>
<path d="M17816 5355 c-17 -18 -23 -31 -16 -33 16 -6 53 33 48 49 -3 10 -13 5
-32 -16z"/>
<path d="M14408 5359 c-11 -6 -18 -22 -18 -39 0 -21 -6 -31 -22 -36 l-23 -7
23 -8 c20 -8 22 -15 22 -89 0 -47 4 -80 10 -80 6 0 10 33 10 80 0 77 1 80 25
86 14 3 25 10 25 15 0 5 -11 9 -25 9 -18 0 -25 5 -25 19 0 22 23 43 42 39 7
-2 15 2 16 7 4 14 -39 17 -60 4z"/>
<path d="M15293 5345 c-15 -34 5 -33 30 0 17 24 17 25 0 25 -10 0 -23 -11 -30
-25z"/>
<path d="M15880 5321 l0 -50 -30 11 c-82 28 -140 -65 -95 -152 17 -33 58 -46
101 -30 20 8 30 8 32 1 2 -6 8 -9 13 -5 5 3 9 66 9 140 0 112 -2 134 -15 134
-11 0 -15 -12 -15 -49z m-20 -71 c29 -29 28 -103 -2 -124 -30 -21 -44 -20 -68
4 -40 40 -15 140 35 140 8 0 24 -9 35 -20z"/>
<path d="M17050 5229 c0 -119 2 -140 14 -130 10 8 21 9 42 1 80 -31 136 44
103 138 -13 39 -56 58 -99 44 l-30 -11 0 50 c0 37 -4 49 -15 49 -13 0 -15 -22
-15 -141z m120 21 c40 -40 15 -140 -35 -140 -52 0 -78 113 -33 144 30 21 44
20 68 -4z"/>
<path d="M18710 5235 c0 -83 4 -135 10 -135 6 0 10 52 10 135 0 83 -4 135 -10
135 -6 0 -10 -52 -10 -135z"/>
<path d="M14290 5345 c0 -9 5 -15 11 -13 6 2 11 8 11 13 0 5 -5 11 -11 13 -6
2 -11 -4 -11 -13z"/>
<path d="M14500 5345 c0 -9 5 -15 11 -13 6 2 11 8 11 13 0 5 -5 11 -11 13 -6
2 -11 -4 -11 -13z"/>
<path d="M15130 5345 c0 -8 7 -15 15 -15 8 0 15 7 15 15 0 8 -7 15 -15 15 -8
0 -15 -7 -15 -15z"/>
<path d="M17650 5345 c0 -9 5 -15 11 -13 6 2 11 8 11 13 0 5 -5 11 -11 13 -6
2 -11 -4 -11 -13z"/>
<path d="M18800 5345 c0 -9 5 -15 11 -13 6 2 11 8 11 13 0 5 -5 11 -11 13 -6
2 -11 -4 -11 -13z"/>
<path d="M13633 5340 c-53 -22 -77 -132 -43 -195 24 -44 94 -68 144 -49 27 10
18 27 -10 20 -72 -18 -132 45 -121 128 9 62 46 90 110 83 35 -5 47 -3 44 6 -4
15 -93 20 -124 7z"/>
<path d="M14163 5314 c-4 -10 -14 -24 -22 -31 -14 -10 -14 -12 2 -19 14 -5 18
-16 17 -48 -4 -99 8 -126 56 -126 31 0 31 16 -1 24 -29 7 -37 33 -33 102 3 45
5 49 31 52 15 2 27 7 27 12 0 5 -12 10 -27 12 -16 2 -28 8 -28 15 0 21 -14 26
-22 7z"/>
<path d="M13826 5265 c-21 -20 -26 -33 -26 -73 0 -75 43 -111 116 -97 48 9 44
28 -4 20 -43 -7 -78 14 -84 50 -3 18 3 20 60 23 60 3 62 4 62 31 0 64 -74 92
-124 46z m84 -15 c31 -31 24 -40 -30 -40 -33 0 -50 4 -50 13 0 17 12 33 30 40
25 9 29 8 50 -13z"/>
<path d="M14010 5195 c0 -78 3 -95 15 -95 12 0 15 14 15 63 0 69 22 107 60
107 11 0 20 5 20 10 0 15 -33 12 -56 -5 -25 -19 -34 -19 -34 0 0 8 -4 15 -10
15 -6 0 -10 -38 -10 -95z"/>
<path d="M14290 5196 c0 -57 4 -96 10 -96 6 0 10 35 10 85 0 47 0 88 1 92 0 4
-4 9 -10 11 -7 2 -11 -28 -11 -92z"/>
<path d="M14500 5195 c0 -57 4 -95 10 -95 6 0 10 38 10 95 0 57 -4 95 -10 95
-6 0 -10 -38 -10 -95z"/>
<path d="M14623 5280 c-30 -12 -43 -41 -43 -93 0 -62 24 -90 80 -91 28 -1 45
4 48 13 3 11 -2 12 -23 7 -57 -14 -97 43 -75 109 12 35 38 48 79 38 17 -4 22
-2 19 8 -5 17 -54 22 -85 9z"/>
<path d="M14788 5283 c-31 -8 -19 -25 15 -22 58 4 67 0 67 -26 0 -20 -5 -25
-25 -25 -14 0 -41 -7 -60 -14 -29 -12 -35 -20 -35 -45 0 -44 25 -65 69 -56 20
4 46 7 59 7 21 0 22 4 22 78 0 70 -2 81 -22 94 -22 15 -54 19 -90 9z m80 -120
c4 -28 -38 -57 -68 -48 -31 10 -24 57 10 66 38 11 55 6 58 -18z"/>
<path d="M14985 5268 c-20 -18 -28 -36 -32 -70 -5 -43 -3 -50 26 -78 24 -24
38 -31 63 -28 17 2 33 9 36 15 2 9 -5 11 -26 7 -42 -9 -72 23 -72 76 0 54 29
84 72 75 23 -6 29 -4 26 6 -8 25 -63 22 -93 -3z"/>
<path d="M15130 5195 c0 -78 3 -95 15 -95 12 0 15 17 15 95 0 78 -3 95 -15 95
-12 0 -15 -17 -15 -95z"/>
<path d="M15253 5278 c-12 -6 -27 -26 -34 -45 -25 -78 22 -150 91 -139 48 8
70 37 70 96 0 31 -6 55 -17 69 -21 25 -78 35 -110 19z m78 -27 c18 -14 24 -29
24 -61 0 -32 -6 -47 -24 -61 -30 -24 -46 -24 -71 1 -40 40 -15 140 34 140 8 0
24 -9 37 -19z"/>
<path d="M15440 5195 c0 -57 4 -95 10 -95 6 0 10 25 10 56 0 82 24 119 70 108
35 -8 40 -20 40 -96 0 -40 4 -68 10 -68 7 0 10 30 8 82 -3 78 -5 83 -30 97
-23 13 -33 14 -60 3 -21 -8 -34 -9 -36 -2 -2 5 -8 10 -13 10 -5 0 -9 -43 -9
-95z"/>
<path d="M15995 5267 c-18 -15 -28 -35 -31 -62 -9 -74 40 -124 109 -111 49 9
48 28 0 20 -30 -4 -43 -1 -61 16 -39 37 -26 55 46 58 57 3 62 5 62 26 0 32
-43 76 -74 76 -14 0 -37 -10 -51 -23z m87 -21 c18 -27 7 -36 -42 -36 -54 0
-61 9 -29 41 21 21 56 19 71 -5z"/>
<path d="M16298 5283 c-34 -9 -19 -25 16 -19 24 5 39 2 50 -9 28 -29 19 -42
-34 -49 -38 -5 -54 -13 -66 -32 -34 -51 22 -100 86 -74 16 6 34 9 39 5 8 -4
11 21 11 76 0 66 -3 84 -17 95 -18 13 -51 16 -85 7z m80 -115 c4 -19 -35 -58
-59 -58 -26 0 -45 28 -32 48 19 32 85 39 91 10z"/>
<path d="M16470 5150 c0 -87 4 -140 10 -140 6 0 10 23 10 51 0 45 2 50 18 44
44 -19 71 -17 96 8 21 21 26 36 26 77 0 79 -53 121 -113 89 -16 -9 -22 -9 -25
0 -2 6 -8 11 -13 11 -5 0 -9 -62 -9 -140z m113 105 c39 -38 27 -116 -19 -137
-24 -11 -29 -10 -50 15 -26 31 -30 66 -13 100 21 40 56 49 82 22z"/>
<path d="M16690 5195 c0 -78 3 -95 15 -95 12 0 15 13 15 61 0 73 11 95 50 104
16 4 30 11 30 16 0 14 -34 11 -56 -6 -25 -19 -34 -19 -34 0 0 8 -4 15 -10 15
-6 0 -10 -38 -10 -95z"/>
<path d="M16855 5265 c-20 -19 -25 -34 -25 -73 0 -130 153 -139 167 -10 5 42
3 50 -25 78 -39 38 -83 40 -117 5z m95 -15 c40 -40 15 -140 -34 -140 -8 0 -24
9 -37 19 -18 14 -24 29 -24 61 0 32 6 47 24 61 30 24 46 24 71 -1z"/>
<path d="M17303 5283 c-39 -7 -27 -26 13 -20 46 8 64 0 64 -28 0 -19 -7 -23
-46 -29 -58 -7 -74 -20 -74 -57 0 -42 26 -62 69 -55 20 4 46 7 59 7 21 1 22 5
22 79 0 103 -18 120 -107 103z m77 -118 c0 -31 -40 -59 -70 -50 -34 11 -23 58
15 66 51 11 55 10 55 -16z"/>
<path d="M17503 5278 c-38 -18 -54 -93 -32 -142 19 -42 105 -62 117 -27 3 10
-3 12 -26 6 -43 -9 -72 21 -72 75 0 53 30 85 72 76 21 -4 28 -2 26 7 -6 16
-57 19 -85 5z"/>
<path d="M17650 5196 c0 -57 4 -96 10 -96 6 0 10 35 10 85 0 47 0 88 1 92 0 4
-4 9 -10 11 -7 2 -11 -28 -11 -92z"/>
<path d="M17773 5280 c-30 -12 -43 -41 -43 -93 0 -54 25 -86 72 -94 27 -4 41
0 64 20 25 22 29 32 29 77 0 44 -4 55 -28 76 -29 25 -56 29 -94 14z m77 -30
c45 -45 11 -151 -43 -134 -32 10 -44 22 -51 50 -19 74 46 132 94 84z"/>
<path d="M17950 5195 c0 -78 3 -95 15 -95 12 0 15 14 15 70 0 63 2 71 25 86
21 14 31 15 50 6 23 -11 25 -17 25 -87 0 -61 3 -75 15 -75 13 0 15 14 13 82
-3 78 -5 83 -30 97 -23 13 -32 14 -64 2 -28 -10 -39 -11 -42 -2 -2 6 -8 11
-13 11 -5 0 -9 -43 -9 -95z"/>
<path d="M18303 5280 c-30 -12 -43 -41 -43 -93 0 -56 23 -86 71 -93 51 -9 89
26 96 87 5 39 2 48 -25 77 -31 33 -57 39 -99 22z m60 -21 c30 -16 37 -28 37
-66 0 -45 -9 -63 -38 -74 -32 -12 -67 9 -76 46 -9 35 10 92 32 98 9 3 18 5 20
6 2 0 13 -4 25 -10z"/>
<path d="M18488 5195 c3 -97 22 -136 22 -46 0 79 22 120 62 121 34 0 48 -28
48 -101 0 -41 4 -69 10 -69 7 0 10 30 8 82 -3 78 -5 83 -30 97 -23 13 -33 14
-60 3 -21 -8 -34 -9 -36 -2 -2 5 -9 10 -15 10 -9 0 -11 -27 -9 -95z"/>
<path d="M18800 5195 c0 -57 4 -95 10 -95 6 0 10 38 10 95 0 57 -4 95 -10 95
-6 0 -10 -38 -10 -95z"/>
<path d="M18890 5195 c0 -57 4 -95 10 -95 6 0 10 22 10 49 0 89 28 132 76 114
29 -10 34 -23 34 -95 0 -40 4 -68 10 -68 7 0 10 30 8 82 -3 78 -5 83 -30 97
-23 13 -33 14 -60 3 -21 -8 -34 -9 -36 -2 -2 5 -8 10 -13 10 -5 0 -9 -43 -9
-95z"/>
<path d="M19131 5272 c-33 -26 -44 -92 -21 -134 20 -37 57 -53 106 -44 48 10
44 30 -4 21 -43 -7 -78 14 -84 50 -3 18 3 20 60 23 60 3 62 4 62 31 0 39 -20
61 -60 67 -25 3 -42 -1 -59 -14z m79 -22 c32 -32 24 -40 -35 -40 -52 0 -55 1
-45 20 10 18 37 39 53 40 4 0 16 -9 27 -20z"/>
<path d="M19310 5269 c0 -14 5 -19 17 -17 26 5 29 38 4 38 -15 0 -21 -6 -21
-21z"/>
<path d="M19310 5115 c0 -20 4 -26 18 -23 9 2 17 12 17 23 0 11 -8 21 -17 23
-14 3 -18 -3 -18 -23z"/>
<path d="M13740 4360 l0 -200 25 0 c14 0 28 7 31 15 5 13 8 13 27 0 37 -26 83
-19 125 19 36 34 37 36 37 104 0 79 -20 119 -69 137 -25 9 -34 7 -98 -20 -16
-6 -18 0 -18 69 l0 76 -30 0 -30 0 0 -200z m164 8 c9 -13 16 -43 16 -68 0 -53
-26 -90 -65 -90 -40 0 -55 25 -55 90 0 49 4 61 22 74 32 22 64 20 82 -6z"/>
<path d="M14491 4498 c1 -35 -2 -64 -7 -65 -5 -2 -24 0 -42 3 -40 8 -81 -9
-107 -44 -16 -21 -20 -43 -20 -100 0 -70 1 -75 33 -103 36 -33 69 -36 114 -13
28 15 32 15 40 0 5 -9 20 -16 33 -16 l25 0 0 200 0 200 -36 0 -35 0 2 -62z
m-20 -118 c16 -9 19 -22 19 -81 0 -65 -1 -70 -26 -79 -59 -23 -84 -1 -84 76 0
77 38 112 91 84z"/>
<path d="M15340 4360 l0 -200 35 0 35 0 0 200 0 200 -35 0 -35 0 0 -200z"/>
<path d="M16475 4550 c-4 -6 -5 -36 -4 -68 2 -45 -1 -56 -12 -53 -101 29 -169
-24 -169 -133 0 -59 26 -112 61 -127 34 -14 92 -5 110 17 11 14 14 13 21 -5 5
-14 16 -21 33 -21 l25 0 0 200 0 200 -29 0 c-17 0 -33 -5 -36 -10z m-22 -172
c13 -10 18 -30 20 -76 2 -69 -12 -92 -59 -92 -38 0 -54 26 -54 86 0 78 45 117
93 82z"/>
<path d="M18781 4493 c3 -57 1 -67 -11 -64 -96 26 -157 -12 -168 -105 -14
-123 58 -195 149 -150 29 15 34 15 41 1 5 -8 20 -15 33 -15 l25 0 0 200 0 200
-36 0 -36 0 3 -67z m-4 -116 c9 -10 9 -129 -1 -142 -6 -8 -25 -17 -42 -21 -46
-9 -64 15 -64 82 0 68 25 99 73 90 17 -3 32 -8 34 -9z"/>
<path d="M12571 4388 c-36 -90 -71 -178 -78 -195 l-13 -33 38 0 c36 0 38 2 55
50 l18 51 81 -3 80 -3 18 -45 c16 -41 21 -45 54 -48 20 -2 36 -1 36 1 0 2 -33
89 -74 193 l-75 189 -38 3 -38 3 -64 -163z m159 -70 c0 -5 -27 -8 -60 -8 -33
0 -60 1 -60 3 0 2 11 30 24 63 12 32 26 68 30 79 6 16 14 5 37 -55 16 -41 29
-78 29 -82z"/>
<path d="M15655 4541 c-27 -12 -61 -51 -70 -78 -5 -20 -3 -23 22 -23 21 0 36
9 51 30 15 19 31 30 47 30 25 0 65 -31 65 -50 0 -34 -41 -95 -115 -171 -47
-48 -85 -94 -85 -103 0 -14 17 -16 136 -16 l135 0 -3 28 c-3 26 -5 27 -81 32
l-78 5 47 45 c78 75 104 117 104 166 0 64 -39 105 -106 110 -27 2 -58 0 -69
-5z"/>
<path d="M15965 4535 c-16 -9 -38 -26 -47 -38 -20 -25 -24 -97 -8 -128 16 -28
68 -51 106 -47 19 2 34 2 34 -1 0 -2 -25 -37 -55 -77 -30 -40 -55 -76 -55 -79
0 -3 16 -5 35 -5 30 0 40 7 80 58 53 67 105 165 105 199 0 33 -23 84 -49 107
-29 26 -107 32 -146 11z m103 -51 c15 -10 22 -25 22 -49 0 -58 -69 -86 -110
-45 -58 58 20 142 88 94z"/>
<path d="M17090 4402 c0 -169 -5 -182 -74 -182 -35 0 -37 -2 -34 -27 3 -25 7
-28 48 -31 61 -4 110 28 126 83 7 22 13 100 13 173 l1 132 -40 0 -40 0 0 -148z"/>
<path d="M17244 4535 c-3 -8 -4 -70 -3 -137 4 -134 17 -170 70 -211 65 -48
183 -27 229 40 23 34 25 46 28 180 l3 143 -35 0 -36 0 0 -122 c0 -97 -4 -130
-18 -158 -28 -57 -97 -66 -142 -18 -18 20 -20 35 -20 160 l0 138 -35 0 c-22 0
-38 -6 -41 -15z"/>
<path d="M17640 4355 l0 -195 115 0 115 0 0 30 0 30 -80 0 -80 0 0 165 0 165
-35 0 -35 0 0 -195z"/>
<path d="M17930 4355 l0 -195 35 0 35 0 0 195 0 195 -35 0 -35 0 0 -195z"/>
<path d="M18193 4539 c-41 -12 -99 -71 -114 -116 -17 -53 -7 -135 23 -181 36
-54 87 -77 169 -77 55 0 72 5 107 28 54 36 82 90 82 162 0 111 -70 186 -178
192 -32 1 -72 -2 -89 -8z m132 -65 c72 -34 87 -157 26 -218 -27 -27 -38 -31
-85 -31 -65 0 -100 27 -117 87 -32 122 67 214 176 162z"/>
<path d="M19385 4541 c-26 -12 -61 -50 -69 -77 -5 -17 -2 -22 19 -26 19 -4 30
2 50 28 42 54 105 41 105 -22 0 -50 -12 -68 -106 -165 -46 -48 -84 -94 -84
-103 0 -14 17 -16 136 -16 l135 0 -3 28 c-3 26 -5 27 -81 32 l-78 5 47 45 c78
75 104 117 104 166 0 64 -39 105 -106 110 -27 2 -58 0 -69 -5z"/>
<path d="M19694 4540 c-79 -32 -118 -202 -69 -300 37 -73 124 -101 188 -61 50
31 72 88 72 187 -1 70 -4 87 -25 118 -39 56 -107 80 -166 56z m95 -64 c25 -27
38 -108 27 -177 -8 -53 -24 -76 -59 -84 -58 -15 -96 69 -82 182 11 91 67 129
114 79z"/>
<path d="M20004 4540 c-25 -10 -74 -66 -74 -85 0 -13 37 -24 58 -17 7 2 12 10
12 18 0 22 47 47 75 40 35 -9 46 -35 33 -82 -7 -28 -35 -64 -99 -130 -49 -49
-89 -98 -89 -107 0 -15 15 -17 136 -17 l135 0 -3 28 c-3 26 -5 27 -81 32 l-78
5 56 55 c87 85 113 150 84 214 -21 45 -107 70 -165 46z"/>
<path d="M20320 4543 c-102 -37 -131 -248 -47 -340 62 -67 166 -52 210 31 18
33 22 58 22 127 0 75 -3 90 -25 122 -37 55 -105 80 -160 60z m85 -65 c20 -18
27 -35 32 -79 11 -113 -17 -189 -72 -189 -52 0 -83 83 -70 187 5 39 14 63 30
79 30 30 47 30 80 2z"/>
<path d="M12900 4435 c-1 -3 -1 -79 -1 -170 0 -91 0 -172 1 -180 0 -10 10 -15
30 -15 30 0 30 0 30 56 0 50 2 55 18 49 31 -13 61 -17 85 -11 88 22 118 177
47 248 -33 33 -82 38 -119 11 -22 -15 -25 -15 -36 0 -11 15 -54 24 -55 12z
m160 -65 c23 -23 27 -84 8 -125 -14 -30 -50 -42 -84 -26 -22 10 -24 16 -24 75
0 56 3 67 22 80 30 21 54 20 78 -4z"/>
<path d="M13210 4438 c-1 -2 -2 -65 -3 -141 l-2 -137 33 0 32 0 0 88 c1 101
11 122 67 131 32 5 38 10 41 34 3 24 0 27 -26 27 -16 0 -41 -10 -56 -21 l-27
-21 -6 21 c-3 14 -13 21 -29 21 -13 0 -24 -1 -24 -2z"/>
<path d="M13485 4426 c-56 -25 -70 -51 -70 -128 0 -66 2 -71 32 -98 58 -52
152 -49 204 6 21 22 24 35 24 94 0 54 -4 73 -20 90 -41 46 -112 61 -170 36z
m105 -56 c15 -15 20 -33 20 -70 0 -57 -24 -90 -65 -90 -41 0 -65 33 -65 90 0
57 24 90 65 90 14 0 34 -9 45 -20z"/>
<path d="M14105 4432 c-42 -15 -58 -29 -51 -47 4 -12 13 -16 29 -12 93 21 101
19 112 -26 7 -24 5 -27 -20 -27 -74 0 -145 -45 -145 -92 0 -28 45 -68 76 -68
14 0 42 8 61 17 33 15 36 15 45 0 5 -9 18 -17 28 -17 19 0 20 8 20 109 0 100
-2 112 -23 136 -17 20 -34 28 -67 31 -25 1 -54 0 -65 -4z m95 -172 c0 -46 -92
-67 -98 -22 -4 25 23 40 71 41 20 1 27 -4 27 -19z"/>
<path d="M14679 4417 c-43 -29 -59 -60 -59 -117 0 -57 16 -88 59 -117 91 -62
211 5 211 117 0 112 -120 179 -211 117z m121 -49 c28 -30 28 -110 0 -138 -11
-11 -31 -20 -45 -20 -41 0 -65 33 -65 90 0 37 5 55 20 70 26 26 64 25 90 -2z"/>
<path d="M15089 4417 c-43 -29 -59 -60 -59 -117 0 -109 100 -170 205 -126 35
15 45 38 24 52 -6 3 -29 1 -51 -7 -52 -17 -87 -4 -105 39 l-13 32 95 0 c95 0
95 0 95 25 0 102 -107 159 -191 102z m111 -47 c32 -32 24 -40 -40 -40 -66 0
-79 15 -38 44 30 21 54 20 78 -4z"/>
<path d="M16659 4417 c-43 -29 -59 -60 -59 -117 0 -81 57 -140 135 -140 65 0
129 44 96 65 -5 3 -30 0 -56 -7 -56 -15 -94 1 -106 45 l-7 27 94 0 94 0 0 28
c0 39 -31 95 -60 109 -39 20 -93 16 -131 -10z m109 -43 c41 -29 28 -44 -38
-44 -46 0 -60 3 -60 14 0 17 38 46 60 46 9 0 26 -7 38 -16z"/>
<path d="M18969 4417 c-43 -29 -59 -60 -59 -117 0 -108 105 -172 206 -124 61
29 38 65 -28 43 -52 -17 -87 -4 -105 39 l-13 32 95 0 c95 0 95 0 95 25 0 102
-107 159 -191 102z m111 -47 c32 -32 24 -40 -40 -40 -66 0 -79 15 -38 44 30
21 54 20 78 -4z"/>
<path d="M14430 3645 c0 -158 1 -165 20 -165 18 0 20 7 20 84 0 76 2 86 22
100 60 42 87 10 88 -101 0 -76 2 -83 20 -83 19 0 20 7 20 90 0 83 -2 93 -25
115 -28 29 -65 32 -100 9 l-25 -16 0 66 c0 59 -2 66 -20 66 -19 0 -20 -7 -20
-165z"/>
<path d="M15720 3750 c0 -57 -1 -60 -19 -50 -36 19 -72 11 -102 -21 -24 -26
-29 -40 -29 -81 0 -53 20 -102 45 -112 28 -10 60 -7 81 9 25 19 34 19 34 0 0
-8 7 -15 15 -15 13 0 15 25 15 165 0 158 -1 165 -20 165 -18 0 -20 -7 -20 -60z
m-19 -80 c15 -9 19 -22 19 -70 0 -50 -4 -61 -22 -74 -49 -35 -88 -6 -88 63 0
76 38 109 91 81z"/>
<path d="M18684 3796 c-9 -24 4 -48 23 -44 12 2 18 12 18 28 0 29 -32 41 -41
16z"/>
<path d="M13893 3761 c-24 -21 -43 -44 -43 -50 0 -14 27 -15 35 -1 3 5 15 15
26 20 18 10 19 7 19 -105 l0 -115 -35 0 c-24 0 -35 -5 -35 -15 0 -12 16 -15
85 -15 69 0 85 3 85 15 0 10 -10 15 -30 15 l-30 0 0 145 c0 167 -4 172 -77
106z"/>
<path d="M14113 3733 c-6 -38 -8 -71 -6 -76 2 -4 22 -4 43 -1 72 12 112 -39
84 -105 -15 -36 -50 -48 -95 -32 -42 14 -49 14 -49 -3 0 -16 50 -36 92 -36 34
0 97 55 99 87 5 81 -32 123 -111 123 -29 0 -32 3 -26 23 3 12 6 30 6 40 0 14
10 17 60 17 47 0 60 3 60 15 0 12 -15 15 -73 15 l-74 0 -10 -67z"/>
<path d="M16976 3774 c-29 -43 -12 -50 30 -11 39 36 39 36 13 37 -18 0 -32 -9
-43 -26z"/>
<path d="M18176 3778 c-33 -47 -4 -53 39 -8 l29 30 -27 0 c-15 0 -32 -9 -41
-22z"/>
<path d="M18553 3779 c-7 -7 -13 -26 -13 -41 0 -21 -5 -28 -20 -28 -23 0 -27
-27 -4 -32 12 -2 15 -20 17 -84 1 -51 7 -87 16 -98 14 -17 57 -21 80 -7 18 11
4 34 -16 27 -31 -12 -43 14 -43 90 l0 74 35 0 c24 0 35 5 35 15 0 10 -10 15
-34 15 -34 0 -35 2 -38 41 -2 32 -5 38 -15 28z"/>
<path d="M16160 3745 c0 -28 -4 -35 -20 -35 -11 0 -20 -7 -20 -15 0 -8 8 -15
18 -15 15 0 17 -9 15 -72 -3 -79 11 -121 41 -126 29 -6 66 7 66 23 0 11 -7 14
-23 10 -37 -10 -48 14 -45 92 l3 68 33 3 c46 5 43 32 -3 32 -33 0 -35 2 -35
35 0 24 -5 35 -15 35 -10 0 -15 -11 -15 -35z"/>
<path d="M14691 3679 c-27 -27 -31 -37 -31 -86 0 -49 4 -58 31 -84 53 -49 134
-35 164 28 56 117 -76 231 -164 142z m103 -10 c46 -21 44 -123 -3 -148 -50
-27 -91 6 -91 74 0 32 6 51 20 65 23 23 39 25 74 9z"/>
<path d="M14910 3595 c0 -108 1 -115 20 -115 18 0 20 7 20 75 0 83 18 115 64
115 23 0 41 22 29 34 -13 13 -51 5 -69 -15 l-18 -20 -8 20 c-4 12 -14 21 -23
21 -13 0 -15 -18 -15 -115z"/>
<path d="M15128 3698 c-35 -12 -39 -44 -5 -33 63 20 76 18 87 -10 13 -35 8
-41 -43 -49 -77 -12 -109 -64 -67 -106 23 -23 54 -25 92 -6 23 12 27 12 32 0
3 -8 12 -14 19 -14 18 0 23 112 8 168 -15 55 -60 74 -123 50z m92 -138 c0 -27
-43 -54 -75 -46 -34 9 -33 41 3 54 46 17 72 14 72 -8z"/>
<path d="M15326 3689 c-44 -34 -33 -68 31 -99 40 -19 53 -30 53 -47 0 -28 -33
-39 -71 -23 -16 7 -32 10 -36 7 -13 -14 8 -36 41 -42 62 -12 106 15 106 66 0
27 -6 33 -55 55 -80 37 -72 84 11 68 26 -5 34 -3 34 9 0 31 -76 36 -114 6z"/>
<path d="M15871 3696 c-32 -18 -50 -53 -51 -99 -1 -94 79 -144 162 -101 20 10
27 19 20 26 -7 7 -17 6 -30 -1 -48 -26 -112 0 -112 45 0 23 2 24 75 24 l75 0
0 31 c0 66 -79 108 -139 75z m89 -36 c32 -32 24 -40 -40 -40 -64 0 -73 9 -43
42 21 24 58 23 83 -2z"/>
<path d="M16345 3698 c-36 -20 -55 -52 -55 -96 0 -100 77 -150 162 -106 41 21
23 35 -29 22 -34 -10 -45 -9 -67 5 -16 11 -26 27 -26 42 0 24 2 25 75 25 l75
0 0 31 c0 63 -79 108 -135 77z m89 -40 c9 -12 16 -26 16 -30 0 -5 -27 -8 -60
-8 -66 0 -79 15 -38 44 32 22 64 20 82 -6z"/>
<path d="M16570 3697 c-33 -17 -50 -53 -50 -109 0 -64 29 -98 91 -105 41 -5
50 -2 80 25 30 27 33 35 33 87 0 52 -3 60 -32 86 -35 32 -79 38 -122 16z m94
-36 c10 -11 20 -37 23 -59 5 -34 1 -45 -20 -66 -30 -30 -53 -33 -85 -10 -30
21 -32 104 -2 134 25 25 62 26 84 1z"/>
<path d="M16770 3595 c0 -108 1 -115 20 -115 18 0 20 7 20 73 0 85 16 117 59
117 27 0 47 21 34 34 -13 13 -51 5 -69 -15 l-18 -20 -8 20 c-4 12 -14 21 -23
21 -13 0 -15 -18 -15 -115z"/>
<path d="M16960 3596 c0 -110 1 -116 20 -116 20 0 21 5 18 112 -3 98 -5 113
-20 116 -16 3 -18 -7 -18 -112z"/>
<path d="M17098 3699 c-35 -13 -39 -45 -5 -34 52 16 65 16 80 0 10 -9 17 -25
17 -36 0 -14 -7 -19 -30 -19 -43 0 -100 -30 -106 -57 -9 -33 20 -73 52 -73 14
0 38 7 54 15 25 13 29 13 34 0 3 -8 12 -15 21 -15 12 0 15 14 14 73 -2 110
-17 145 -70 152 -19 2 -46 0 -61 -6z m92 -139 c0 -25 -41 -53 -72 -48 -34 5
-32 50 2 59 49 14 70 10 70 -11z"/>
<path d="M17340 3703 c0 -5 18 -53 41 -108 44 -106 43 -98 12 -182 -3 -8 3
-13 15 -13 15 0 24 10 33 38 6 20 34 88 60 151 27 62 49 115 49 117 0 2 -8 4
-19 4 -14 0 -26 -21 -51 -85 -18 -47 -34 -85 -35 -85 -1 0 -17 38 -35 85 -25
64 -37 85 -51 85 -11 0 -19 -3 -19 -7z"/>
<path d="M17670 3555 c0 -148 1 -155 20 -155 17 0 20 7 20 50 0 47 11 63 25
40 8 -13 48 -13 79 1 14 7 32 26 41 44 49 104 -34 215 -119 160 -21 -14 -24
-14 -29 0 -4 8 -13 15 -22 15 -13 0 -15 -22 -15 -155z m140 110 c7 -8 15 -34
17 -58 8 -71 -43 -116 -98 -87 -15 9 -19 22 -19 70 0 50 4 61 22 74 28 20 62
20 78 1z"/>
<path d="M17910 3595 c0 -108 1 -115 20 -115 18 0 20 7 20 70 0 85 18 120 60
120 15 0 30 6 33 14 12 32 -28 35 -66 6 -25 -20 -25 -20 -30 0 -3 11 -12 20
-21 20 -14 0 -16 -16 -16 -115z"/>
<path d="M18123 3698 c-13 -6 -23 -18 -23 -26 0 -10 6 -12 23 -7 58 18 70 18
84 0 22 -31 16 -55 -12 -55 -44 0 -105 -30 -111 -55 -14 -56 42 -90 101 -62
29 14 34 14 39 1 3 -8 12 -14 21 -14 12 0 15 13 15 63 -1 80 -14 135 -37 152
-21 17 -69 18 -100 3z m97 -138 c0 -27 -43 -54 -75 -46 -34 9 -33 41 3 54 46
17 72 14 72 -8z"/>
<path d="M18355 3699 c-40 -23 -55 -52 -55 -107 0 -46 4 -58 29 -83 20 -19 40
-29 60 -29 38 0 81 19 81 37 0 15 -26 18 -35 3 -10 -17 -54 -11 -75 10 -14 14
-20 33 -20 65 0 69 46 104 100 75 22 -12 39 5 22 22 -15 15 -85 20 -107 7z"/>
<path d="M18690 3595 c0 -106 2 -116 18 -113 15 3 17 16 17 113 0 97 -2 110
-17 113 -16 3 -18 -7 -18 -113z"/>
<path d="M18831 3697 c-34 -20 -50 -55 -51 -110 0 -84 69 -130 145 -95 14 6
25 17 25 25 0 15 -26 18 -35 3 -10 -17 -54 -11 -75 10 -14 14 -20 33 -20 65 0
69 46 104 100 75 22 -12 39 5 22 22 -16 16 -85 19 -111 5z"/>
<path d="M19033 3698 c-13 -6 -23 -18 -23 -26 0 -10 6 -12 23 -7 67 20 81 16
92 -28 6 -24 5 -27 -19 -27 -44 0 -106 -30 -112 -55 -14 -56 42 -90 101 -62
29 14 34 14 39 1 3 -8 12 -14 21 -14 12 0 15 14 15 74 0 80 -8 113 -35 139
-18 19 -69 21 -102 5z m97 -138 c0 -25 -41 -53 -72 -48 -34 5 -32 50 2 59 49
14 70 10 70 -11z"/>
<path d="M13940 2965 l0 -135 25 0 c24 0 25 2 25 70 0 64 2 71 23 79 40 15 47
4 47 -75 0 -72 1 -74 25 -74 24 0 25 2 25 75 0 62 -4 79 -20 95 -22 22 -51 26
-81 10 -18 -10 -19 -7 -19 40 0 47 -2 50 -25 50 l-25 0 0 -135z"/>
<path d="M14977 3063 c-43 -98 -97 -246 -93 -250 17 -17 40 20 85 137 28 72
51 136 51 141 0 24 -29 5 -43 -28z"/>
<path d="M15113 3053 c-43 -97 -94 -236 -89 -240 17 -17 39 20 85 137 56 143
57 150 38 150 -7 0 -23 -21 -34 -47z"/>
<path d="M15400 2965 c0 -128 1 -135 20 -135 19 0 20 7 20 135 0 128 -1 135
-20 135 -19 0 -20 -7 -20 -135z"/>
<path d="M16001 3086 c-15 -18 -3 -46 19 -46 24 0 33 15 25 40 -7 23 -28 26
-44 6z"/>
<path d="M16951 3073 c-33 -71 -101 -256 -97 -261 16 -16 39 21 84 138 29 72
52 136 52 141 0 20 -28 7 -39 -18z"/>
<path d="M19031 3073 c-33 -71 -101 -256 -97 -261 16 -16 39 21 84 138 29 72
52 136 52 141 0 20 -28 7 -39 -18z"/>
<path d="M17083 3069 c-30 -15 -48 -33 -62 -63 -26 -53 -26 -79 0 -132 34 -72
125 -103 204 -70 58 24 42 35 -44 29 -79 -6 -80 -5 -110 25 -26 26 -31 38 -31
80 0 41 5 55 29 81 25 27 36 31 80 31 42 0 57 -5 76 -25 38 -37 30 -125 -11
-125 -12 0 -15 11 -12 53 3 50 2 52 -24 55 -38 5 -83 -22 -98 -57 -10 -26 -10
-35 4 -56 18 -27 36 -31 68 -14 14 8 23 8 31 0 18 -18 46 -13 72 14 20 19 25
35 25 71 0 42 -4 51 -40 86 -48 45 -91 50 -157 17z m87 -103 c0 -34 -20 -66
-41 -66 -19 0 -21 4 -15 32 3 18 12 36 19 40 19 12 37 9 37 -6z"/>
<path d="M17336 3069 c-19 -15 -26 -30 -26 -53 0 -39 21 -60 75 -78 29 -9 41
-19 43 -36 5 -31 -32 -44 -74 -27 -23 10 -35 10 -43 2 -18 -18 -13 -25 25 -37
69 -23 127 5 140 66 7 35 -21 65 -78 84 -31 9 -38 16 -38 37 0 25 2 25 50 21
55 -6 74 7 45 29 -28 20 -88 16 -119 -8z"/>
<path d="M18785 3079 c-25 -12 -48 -46 -40 -59 10 -17 34 -11 45 10 15 27 66
27 75 0 8 -26 -15 -66 -70 -120 -81 -79 -80 -80 30 -80 86 0 96 2 93 18 -2 13
-15 18 -57 20 l-53 3 51 54 c40 43 51 61 51 87 0 39 -7 51 -37 67 -26 13 -60
13 -88 0z"/>
<path d="M14174 3050 c-4 -16 -13 -30 -20 -30 -17 0 -18 -27 -1 -32 7 -3 14
-31 17 -73 6 -76 19 -92 64 -81 32 8 30 29 -3 34 -20 3 -22 8 -19 60 3 50 6
57 26 60 31 5 29 32 -3 32 -21 0 -25 5 -25 30 0 20 -5 30 -15 30 -9 0 -18 -12
-21 -30z"/>
<path d="M14314 3050 c-4 -16 -13 -30 -20 -30 -19 0 -18 -26 1 -33 10 -4 15
-26 17 -73 3 -74 16 -92 61 -80 35 8 36 36 2 36 -25 0 -26 2 -23 58 3 50 6 57
26 60 31 5 29 32 -3 32 -21 0 -25 5 -25 30 0 20 -5 30 -15 30 -9 0 -18 -12
-21 -30z"/>
<path d="M15704 3050 c-4 -16 -13 -30 -20 -30 -19 0 -18 -26 1 -34 11 -4 15
-22 15 -69 0 -73 12 -90 57 -85 32 3 39 33 8 33 -18 0 -20 7 -20 60 0 55 2 60
23 63 31 5 29 32 -3 32 -21 0 -25 5 -25 30 0 20 -5 30 -15 30 -9 0 -18 -12
-21 -30z"/>
<path d="M18125 3050 c-4 -16 -13 -30 -21 -30 -19 0 -18 -26 1 -34 11 -4 15
-22 15 -69 0 -73 12 -90 57 -85 34 4 38 32 6 36 -21 3 -23 9 -23 58 0 49 2 54
25 60 14 3 25 12 25 20 0 8 -10 14 -25 14 -21 0 -25 5 -25 30 0 19 -5 30 -14
30 -8 0 -17 -13 -21 -30z"/>
<path d="M14431 2895 l-1 -125 25 0 c22 0 25 4 25 34 0 34 0 34 38 29 34 -5
42 -1 65 27 63 74 8 184 -76 152 -21 -8 -33 -9 -35 -2 -2 5 -12 10 -22 10 -17
0 -19 -10 -19 -125z m110 85 c13 -7 19 -21 19 -45 0 -53 -8 -65 -46 -65 l-34
0 0 50 c0 36 5 52 18 59 21 13 20 13 43 1z"/>
<path d="M14659 3007 c-20 -15 -31 -48 -21 -64 4 -7 24 -19 45 -28 56 -23 45
-64 -12 -43 -25 9 -48 -9 -32 -25 18 -18 81 -20 106 -3 41 27 31 66 -22 91
-55 25 -56 45 -3 45 27 0 40 4 40 14 0 25 -73 35 -101 13z"/>
<path d="M14807 3013 c-12 -11 -7 -33 8 -39 20 -8 45 13 38 32 -5 14 -34 19
-46 7z"/>
<path d="M15183 2898 c2 -119 3 -123 25 -126 19 -3 22 1 22 33 0 35 1 36 33
30 27 -5 40 -2 63 18 25 22 29 33 29 75 0 78 -47 113 -108 81 -16 -9 -22 -9
-25 0 -2 6 -12 11 -22 11 -17 0 -18 -10 -17 -122z m115 80 c7 -7 12 -29 12
-49 0 -42 -28 -70 -61 -62 -15 4 -19 14 -19 54 0 42 3 51 23 59 30 12 31 12
45 -2z"/>
<path d="M15516 3005 c-26 -20 -13 -30 37 -30 32 0 42 -4 45 -17 2 -13 -3 -18
-18 -18 -11 0 -36 -7 -55 -14 -29 -13 -35 -20 -35 -46 0 -41 37 -59 83 -42 21
8 33 9 35 2 2 -5 10 -10 18 -10 11 0 14 17 14 75 0 62 -4 79 -20 95 -24 24
-76 26 -104 5z m84 -110 c0 -17 -38 -35 -57 -28 -7 3 -13 11 -13 18 0 15 15
23 48 24 13 1 22 -5 22 -14z"/>
<path d="M15820 3005 c0 -10 10 -15 34 -15 19 0 38 -5 41 -10 3 -6 -14 -36
-39 -68 -25 -32 -46 -64 -46 -70 0 -8 24 -12 75 -12 60 0 75 3 75 15 0 11 -11
15 -38 15 -21 0 -41 3 -45 6 -3 4 14 33 38 65 63 81 61 89 -25 89 -56 0 -70
-3 -70 -15z"/>
<path d="M16000 2925 c0 -88 1 -95 20 -95 19 0 20 7 20 95 0 88 -1 95 -20 95
-19 0 -20 -7 -20 -95z"/>
<path d="M16193 2996 c-23 -20 -28 -32 -28 -71 0 -39 5 -51 28 -71 31 -26 62
-30 102 -12 36 16 25 34 -19 30 -46 -4 -66 11 -66 52 0 42 16 56 60 56 45 0
55 9 32 26 -28 21 -78 17 -109 -10z"/>
<path d="M16373 2996 c-23 -20 -28 -32 -28 -71 0 -39 5 -51 28 -71 41 -35 90
-32 129 6 27 28 30 36 25 73 -11 80 -94 114 -154 63z m99 -30 c9 -13 10 -59 2
-80 -4 -10 -18 -16 -39 -16 -36 0 -45 13 -45 60 0 37 25 63 54 54 11 -4 24
-12 28 -18z"/>
<path d="M16560 2925 c0 -95 0 -95 25 -95 24 0 25 2 25 70 0 57 3 71 18 79 30
16 41 -2 44 -74 3 -64 5 -70 26 -73 21 -3 22 0 22 67 0 58 3 72 18 80 33 17
46 -3 50 -78 4 -62 7 -71 23 -71 17 0 19 8 19 73 0 85 -16 117 -58 117 -15 0
-37 -7 -49 -15 -18 -13 -22 -13 -33 0 -15 18 -51 20 -67 4 -8 -8 -13 -8 -17 0
-4 6 -16 11 -27 11 -17 0 -19 -8 -19 -95z"/>
<path d="M17513 2898 c2 -119 3 -123 25 -126 19 -3 22 1 22 32 0 34 1 35 33
29 65 -10 115 69 88 140 -15 38 -53 54 -94 39 -21 -8 -33 -9 -35 -2 -2 5 -12
10 -22 10 -18 0 -19 -8 -17 -122z m119 68 c9 -13 10 -59 2 -80 -4 -10 -18 -16
-40 -16 l-34 0 0 50 c0 36 5 52 17 58 18 11 44 5 55 -12z"/>
<path d="M17739 2991 c-58 -59 -17 -161 65 -161 30 0 76 19 76 32 0 15 -28 20
-50 8 -17 -9 -26 -8 -46 5 -44 28 -31 45 36 45 60 0 60 0 60 29 0 20 -9 36
-26 50 -38 30 -80 27 -115 -8z m99 -28 c2 -9 -9 -13 -37 -13 -39 0 -50 8 -34
24 11 11 66 2 71 -11z"/>
<path d="M17943 2996 c-23 -20 -28 -32 -28 -71 0 -39 5 -51 28 -71 33 -28 73
-31 106 -8 29 21 14 39 -21 25 -37 -14 -68 10 -68 53 0 42 22 61 66 58 39 -3
48 22 12 32 -42 11 -67 6 -95 -18z"/>
<path d="M18264 2997 c-24 -21 -29 -33 -29 -70 0 -54 23 -84 72 -93 37 -7 96
12 90 30 -2 6 -21 10 -46 8 -43 -4 -71 10 -71 34 0 10 16 14 60 14 59 0 60 1
60 28 -1 40 -23 63 -67 69 -32 4 -45 0 -69 -20z m96 -37 c0 -6 -18 -10 -40
-10 -30 0 -38 3 -34 14 10 27 74 23 74 -4z"/>
<path d="M18440 2925 c0 -95 0 -95 25 -95 24 0 25 2 25 63 0 68 10 87 47 87
16 0 23 6 23 20 0 23 -20 26 -51 8 -17 -10 -23 -10 -26 0 -3 6 -13 12 -24 12
-17 0 -19 -8 -19 -95z"/>
<path d="M14804 2875 c-8 -21 2 -45 19 -45 8 0 20 7 27 15 10 12 10 18 0 30
-7 8 -19 15 -27 15 -7 0 -16 -7 -19 -15z"/>
<path d="M16090 2875 c-10 -12 -10 -18 0 -30 25 -30 57 -12 45 25 -8 24 -28
26 -45 5z"/>
<path d="M18570 2795 c0 -12 15 -15 75 -15 60 0 75 3 75 15 0 12 -15 15 -75
15 -60 0 -75 -3 -75 -15z"/>
<path d="M12648 2582 c-74 -45 -76 -167 -3 -212 48 -30 145 -23 145 11 0 6
-10 3 -22 -5 -66 -47 -158 11 -158 99 0 89 77 137 163 100 9 -4 17 -3 17 3 0
26 -103 29 -142 4z"/>
<path d="M12920 2585 c-6 -8 -10 -19 -8 -24 1 -5 11 2 21 15 19 26 8 34 -13 9z"/>
<path d="M13155 2588 c-2 -7 -6 -59 -7 -114 -2 -72 1 -105 10 -113 9 -9 12 14
12 114 0 115 -4 144 -15 113z"/>
<path d="M13230 2585 c0 -9 5 -15 11 -13 6 2 11 8 11 13 0 5 -5 11 -11 13 -6
2 -11 -4 -11 -13z"/>
<path d="M13945 2588 c-2 -7 -6 -59 -7 -114 -2 -72 1 -105 10 -113 9 -9 12 14
12 114 0 115 -4 144 -15 113z"/>
<path d="M14069 2571 c-18 -17 -30 -33 -26 -37 4 -4 18 3 32 16 l25 23 0 -106
0 -106 -32 -4 c-18 -2 -1 -4 37 -4 39 0 58 2 43 4 l-28 4 0 120 c0 65 -4 119
-9 119 -4 0 -23 -13 -42 -29z"/>
<path d="M14240 2580 c-24 -24 -26 -57 -4 -81 14 -16 14 -19 -5 -38 -28 -28
-26 -56 5 -88 22 -22 32 -25 67 -20 23 3 47 14 54 23 20 28 16 71 -8 88 -20
14 -20 16 -5 31 9 9 16 29 16 45 0 54 -79 81 -120 40z m82 -2 c20 -16 24 -36
14 -65 -6 -18 -15 -23 -40 -23 -39 0 -56 15 -56 50 0 39 50 62 82 38z m9 -118
c25 -14 26 -68 2 -86 -40 -30 -103 -5 -103 42 0 46 54 69 101 44z"/>
<path d="M14476 2547 c-49 -66 -68 -110 -60 -142 21 -83 154 -65 154 21 0 47
-31 77 -76 72 l-34 -4 17 26 c8 14 24 34 34 46 11 11 19 23 19 27 0 18 -18 2
-54 -46z m69 -91 c28 -43 -5 -96 -60 -96 -22 0 -55 37 -55 62 0 56 84 81 115
34z"/>
<path d="M14615 2590 c3 -5 35 -10 71 -10 35 0 64 -2 64 -5 0 -3 -25 -55 -55
-115 -30 -61 -51 -110 -45 -110 8 0 130 229 130 245 0 3 -39 5 -86 5 -54 0
-83 -4 -79 -10z"/>
<path d="M15005 2575 c-48 -47 -23 -112 46 -117 l41 -3 -36 -47 c-38 -49 -42
-58 -27 -58 19 0 101 143 101 177 0 68 -76 98 -125 48z m104 -27 c13 -23 13
-29 -2 -52 -34 -52 -111 -25 -105 38 6 58 77 67 107 14z"/>
<path d="M15214 2593 c-14 -10 -37 -53 -28 -53 3 0 15 11 26 25 34 43 98 24
98 -29 0 -27 -28 -56 -56 -57 -11 0 -6 -5 13 -10 40 -12 56 -39 44 -72 -17
-45 -79 -51 -110 -10 -12 14 -24 24 -26 21 -3 -3 4 -17 16 -31 26 -34 75 -36
113 -6 31 25 35 68 7 93 -19 17 -19 18 1 38 20 20 19 60 -1 81 -12 12 -84 19
-97 10z"/>
<path d="M15523 2588 c0 -7 -4 -33 -7 -58 l-8 -45 45 3 c40 3 47 1 62 -22 21
-32 12 -82 -17 -97 -12 -6 -39 -9 -61 -6 -27 4 -36 2 -26 -4 29 -18 84 -10
109 16 49 53 17 125 -56 125 -29 0 -34 4 -34 23 0 56 9 66 64 70 l51 3 -61 2
c-43 1 -61 -2 -61 -10z"/>
<path d="M15756 2547 c-49 -66 -68 -110 -60 -142 21 -83 154 -65 154 21 0 47
-31 77 -76 72 l-34 -4 17 26 c8 14 24 34 34 46 11 11 19 23 19 27 0 18 -18 2
-54 -46z m69 -91 c28 -43 -5 -96 -60 -96 -22 0 -55 37 -55 62 0 56 84 81 115
34z"/>
<path d="M15926 2577 c-49 -49 -25 -114 45 -119 l41 -3 -36 -47 c-37 -49 -42
-58 -27 -58 4 0 29 31 55 70 67 102 62 164 -16 176 -30 5 -41 2 -62 -19z m100
-22 c33 -51 -23 -103 -82 -76 -18 8 -24 18 -24 44 0 42 15 57 57 57 24 0 37
-7 49 -25z"/>
<path d="M16423 2515 c-35 -46 -63 -86 -63 -89 0 -3 27 -6 59 -6 61 0 70 -6
66 -47 -1 -13 2 -23 7 -23 4 0 8 15 8 34 0 30 4 35 28 39 l27 4 -27 2 -28 1 0
85 c0 47 -3 85 -7 85 -5 -1 -36 -38 -70 -85z m66 -26 l-2 -59 -49 0 c-26 0
-48 3 -48 6 0 14 86 122 93 117 4 -3 7 -31 6 -64z"/>
<path d="M16605 2575 c-48 -47 -23 -112 46 -117 l41 -3 -36 -47 c-38 -49 -42
-58 -27 -58 19 0 101 143 101 177 0 68 -76 98 -125 48z m104 -27 c13 -23 13
-29 -2 -52 -34 -52 -111 -25 -105 38 6 58 77 67 107 14z"/>
<path d="M16780 2475 c0 -96 3 -126 11 -118 14 14 12 223 -2 238 -5 5 -9 -39
-9 -120z"/>
<path d="M16990 2580 c-19 -19 -26 -40 -14 -40 3 0 15 11 26 25 23 29 58 32
81 7 27 -29 21 -60 -15 -82 -22 -13 -27 -20 -15 -20 28 0 59 -38 52 -63 -16
-51 -80 -64 -113 -22 -11 14 -23 25 -26 25 -9 0 14 -43 28 -52 27 -19 99 -2
118 26 16 23 8 65 -14 80 -21 15 -22 16 -3 29 25 19 25 75 0 93 -28 21 -82 17
-105 -6z"/>
<path d="M17310 2580 c-24 -24 -26 -57 -4 -81 14 -16 14 -19 -5 -38 -27 -27
-27 -51 0 -85 29 -37 104 -33 131 8 16 23 8 65 -14 81 -21 15 -22 17 -5 26 26
15 23 74 -5 93 -31 22 -74 20 -98 -4z m90 -10 c16 -16 18 -24 9 -50 -9 -25
-16 -30 -43 -30 -38 0 -56 15 -56 46 0 23 33 54 57 54 7 0 22 -9 33 -20z m1
-110 c25 -14 26 -68 2 -86 -58 -43 -137 30 -87 80 18 18 56 21 85 6z"/>
<path d="M17726 2547 c-55 -74 -68 -108 -55 -146 19 -54 75 -67 123 -30 56 44
20 135 -50 127 -39 -5 -41 -2 -15 26 28 32 54 76 45 76 -5 0 -27 -24 -48 -53z
m64 -82 c20 -24 15 -67 -10 -87 -29 -23 -55 -23 -80 2 -40 40 -13 100 45 100
18 0 38 -7 45 -15z"/>
<path d="M17890 2580 c-22 -22 -26 -40 -10 -40 6 0 10 4 10 9 0 18 31 41 55
41 13 0 31 -7 39 -16 30 -30 19 -60 -55 -144 l-71 -80 84 2 83 2 -68 5 -68 6
52 50 c63 62 83 103 68 142 -5 15 -16 31 -22 35 -23 15 -77 8 -97 -12z"/>
<path d="M18223 2590 c-32 -13 -46 -48 -47 -115 -1 -75 19 -111 68 -120 62
-12 106 35 106 114 0 98 -54 150 -127 121z m83 -21 c23 -26 31 -133 12 -168
-30 -56 -90 -53 -114 4 -46 111 33 240 102 164z"/>
<path d="M18505 2588 c-2 -7 -6 -59 -7 -114 -2 -72 1 -105 10 -113 9 -9 12 14
12 114 0 115 -4 144 -15 113z"/>
<path d="M18600 2585 c-7 -8 -13 -26 -14 -40 0 -14 -7 -25 -16 -26 -10 0 -11
-2 -2 -6 8 -3 12 -29 12 -78 0 -41 5 -77 10 -80 6 -4 10 23 10 74 l0 80 33 4
32 4 -32 1 c-28 2 -33 6 -33 26 0 26 14 41 45 49 16 4 15 5 -6 6 -15 0 -32 -6
-39 -14z"/>
<path d="M18710 2580 c-22 -22 -26 -40 -10 -40 6 0 10 4 10 9 0 18 31 41 55
41 50 0 73 -60 37 -93 -10 -10 -27 -17 -38 -18 -11 0 -6 -5 13 -10 43 -13 58
-41 41 -77 -19 -39 -69 -43 -103 -6 -18 19 -25 22 -25 11 0 -48 89 -65 128
-24 29 30 28 71 0 91 -21 15 -22 16 -3 29 25 19 25 75 0 93 -28 21 -82 17
-105 -6z"/>
<path d="M18932 2516 c-34 -46 -62 -86 -62 -90 0 -3 28 -6 63 -6 l63 0 2 -32
c4 -45 12 -49 12 -5 0 31 3 36 28 40 l27 4 -27 2 -28 1 0 85 c0 47 -4 85 -8
85 -4 0 -36 -38 -70 -84z m67 -21 l-2 -65 -54 0 -53 0 47 65 c27 35 52 64 56
65 4 0 7 -29 6 -65z"/>
<path d="M19140 2571 c-40 -33 -37 -52 3 -20 l27 20 0 -105 0 -105 -27 -4
c-16 -2 1 -4 37 -4 36 0 53 2 38 4 l-28 4 0 120 c0 65 -4 119 -8 119 -4 0 -23
-13 -42 -29z"/>
<path d="M19310 2580 c-24 -24 -26 -57 -4 -81 14 -16 14 -19 -5 -38 -27 -27
-27 -51 0 -85 29 -37 104 -33 131 8 16 23 8 65 -14 81 -21 15 -22 17 -5 26 26
15 23 74 -5 93 -31 22 -74 20 -98 -4z m90 -10 c16 -16 18 -24 9 -50 -9 -25
-16 -30 -43 -30 -38 0 -56 15 -56 46 0 23 33 54 57 54 7 0 22 -9 33 -20z m1
-110 c25 -14 26 -68 2 -86 -58 -43 -137 30 -87 80 18 18 56 21 85 6z"/>
<path d="M19515 2575 c-48 -47 -23 -112 46 -117 l41 -3 -36 -47 c-37 -49 -42
-58 -27 -58 4 0 29 31 55 70 33 50 46 80 46 105 0 70 -75 100 -125 50z m104
-27 c13 -23 13 -29 -2 -52 -34 -52 -111 -25 -105 38 6 58 77 67 107 14z"/>
<path d="M19711 2581 c-20 -20 -28 -41 -15 -41 3 0 15 11 26 25 23 29 58 32
81 7 34 -38 21 -64 -85 -175 -21 -22 -38 -41 -38 -43 0 -2 37 -3 83 -2 76 2
77 2 20 5 -35 2 -63 7 -63 10 0 3 24 31 54 63 64 70 75 103 48 139 -26 35 -82
41 -111 12z"/>
<path d="M20117 2548 c-70 -91 -81 -150 -34 -183 52 -36 127 0 127 61 0 47
-31 77 -76 72 -39 -5 -41 -2 -15 26 28 31 54 76 45 75 -5 0 -26 -23 -47 -51z
m68 -92 c33 -50 -15 -110 -73 -90 -64 23 -46 114 23 114 25 0 39 -6 50 -24z"/>
<path d="M20280 2580 c-24 -24 -26 -57 -4 -81 14 -16 14 -19 -5 -38 -28 -28
-26 -56 5 -88 22 -22 32 -25 67 -20 23 3 47 14 54 23 20 28 16 71 -8 88 -20
14 -20 16 -5 31 21 22 20 68 -2 88 -25 23 -78 21 -102 -3z m90 -10 c23 -23 25
-38 6 -62 -15 -21 -66 -24 -84 -6 -19 19 -14 55 10 72 30 21 44 20 68 -4z m1
-110 c25 -14 26 -68 2 -86 -58 -43 -137 30 -87 80 18 18 56 21 85 6z"/>
<path d="M12862 2500 c-32 -30 -31 -112 0 -134 31 -22 70 -20 102 5 21 16 26
29 26 64 0 35 -5 48 -26 64 -34 27 -74 27 -102 1z m84 2 c23 -15 35 -53 28
-87 -7 -38 -28 -55 -67 -55 -30 0 -46 18 -53 62 -10 57 50 109 92 80z"/>
<path d="M13050 2500 c-27 -27 -28 -110 -2 -133 19 -18 67 -23 76 -9 3 5 -8 7
-23 4 -76 -11 -82 125 -7 147 l31 9 -27 1 c-16 1 -37 -8 -48 -19z"/>
<path d="M13230 2435 c0 -50 4 -85 10 -85 6 0 10 35 10 85 0 50 -4 85 -10 85
-6 0 -10 -35 -10 -85z"/>
<path d="M13332 2513 c-22 -9 -33 -40 -22 -67 20 -54 132 -21 117 34 -4 14 0
20 11 21 19 1 -55 18 -78 18 -8 0 -21 -3 -28 -6z m72 -25 c14 -23 -3 -52 -33
-56 -42 -6 -67 38 -39 66 17 17 58 11 72 -10z"/>
<path d="M13500 2500 c-29 -29 -28 -106 2 -131 28 -25 69 -24 102 2 21 16 26
29 26 62 0 48 -6 59 -37 76 -33 17 -71 13 -93 -9z m86 2 c37 -25 40 -113 3
-132 -25 -14 -65 -12 -78 3 -18 23 -24 73 -11 98 16 29 29 39 55 39 11 0 25
-4 31 -8z"/>
<path d="M13680 2505 c0 -9 5 -15 11 -13 6 2 11 8 11 13 0 5 -5 11 -11 13 -6
2 -11 -4 -11 -13z"/>
<path d="M13840 2500 c-30 -30 -28 -113 2 -134 24 -17 64 -21 71 -8 3 4 -9 7
-26 7 -25 0 -34 6 -45 28 -28 57 -2 106 63 120 12 3 7 5 -12 6 -21 1 -40 -6
-53 -19z"/>
<path d="M14830 2500 c-30 -30 -28 -113 2 -134 25 -18 83 -21 93 -6 4 6 -5 7
-23 4 -40 -8 -69 10 -77 47 -14 63 30 111 86 94 14 -5 19 -4 15 4 -12 19 -74
13 -96 -9z"/>
<path d="M16110 2500 c-30 -30 -28 -113 2 -134 25 -18 83 -21 93 -6 4 6 -5 7
-23 4 -40 -8 -69 10 -77 47 -14 63 30 111 86 94 14 -5 19 -4 15 4 -12 19 -74
13 -96 -9z"/>
<path d="M16852 2513 c78 -12 76 -140 -2 -154 l-35 -6 31 -2 c50 -2 77 27 78
83 1 39 -3 51 -23 67 -13 10 -35 18 -50 18 l-26 -2 27 -4z"/>
<path d="M17502 2500 c-31 -29 -31 -98 1 -128 24 -22 90 -31 101 -13 3 5 -14
6 -37 4 -47 -6 -61 4 -72 50 l-7 27 66 0 c59 0 66 2 66 20 0 52 -77 78 -118
40z m92 -12 c9 -12 16 -26 16 -30 0 -5 -27 -8 -60 -8 -60 0 -61 0 -49 23 23
43 68 51 93 15z"/>
<path d="M18400 2500 c-30 -30 -28 -113 2 -134 24 -17 64 -21 71 -8 3 4 -9 7
-26 7 -25 0 -34 6 -45 28 -29 59 12 129 67 114 12 -3 19 -1 15 4 -10 16 -64 9
-84 -11z"/>
<path d="M19905 2506 c-11 -9 -15 -16 -8 -16 6 0 15 5 18 10 9 14 48 13 63 -2
7 -7 12 -22 12 -33 0 -18 -9 -23 -47 -31 -52 -10 -74 -34 -57 -61 12 -20 61
-30 76 -15 5 5 -3 7 -20 4 -17 -2 -33 2 -40 10 -18 22 5 45 52 54 l39 7 -5
-32 c-3 -19 1 -36 9 -42 11 -9 13 0 13 47 0 76 -16 108 -55 112 -17 2 -39 -4
-50 -12z"/>
<path d="M15388 2453 c12 -2 32 -2 45 0 12 2 2 4 -23 4 -25 0 -35 -2 -22 -4z"/>
<path d="M16268 2453 c12 -2 32 -2 45 0 12 2 2 4 -23 4 -25 0 -35 -2 -22 -4z"/>
<path d="M17178 2453 c12 -2 32 -2 45 0 12 2 2 4 -23 4 -25 0 -35 -2 -22 -4z"/>
<path d="M18078 2453 c12 -2 32 -2 45 0 12 2 2 4 -23 4 -25 0 -35 -2 -22 -4z"/>
<path d="M13312 2392 c4 -12 0 -26 -8 -33 -19 -15 -18 -25 6 -49 33 -33 122
-20 133 20 8 31 -11 50 -51 50 -21 0 -48 8 -61 17 -23 16 -24 16 -19 -5z m99
-32 c10 -6 19 -17 19 -25 0 -35 -93 -46 -113 -13 -24 37 44 64 94 38z"/>
<path d="M13680 2365 c0 -9 5 -15 11 -13 6 2 11 8 11 13 0 5 -5 11 -11 13 -6
2 -11 -4 -11 -13z"/>
<path d="M13952 1733 l-13952 -3 0 -865 0 -865 16500 0 16500 0 0 865 0 865
-1397 0 c-769 0 -1915 2 -2548 3 -632 2 -7429 2 -15103 0z"/>
</g>
</svg>
