<svg xmlns="http://www.w3.org/2000/svg" xmlns:xlink="http://www.w3.org/1999/xlink" viewBox="0 0 657 416"><defs><style>.cls-1{fill:#040714;}.cls-2{fill:#fff;}.cls-3{fill:none;}.cls-4{fill:url(#Degradado_sin_nombre_6);}</style><radialGradient id="Degradado_sin_nombre_6" cx="445.52" cy="395.45" r="197.9" gradientTransform="translate(0 -204.6)" gradientUnits="userSpaceOnUse"><stop offset="0.01" stop-color="#fff"/><stop offset="0.03" stop-color="#cbffff"/><stop offset="0.06" stop-color="#96ffff"/><stop offset="0.08" stop-color="#68ffff"/><stop offset="0.11" stop-color="#43ffff"/><stop offset="0.14" stop-color="#25ffff"/><stop offset="0.16" stop-color="#1ff"/><stop offset="0.19" stop-color="#04ffff"/><stop offset="0.22" stop-color="aqua"/><stop offset="1" stop-color="blue" stop-opacity="0"/></radialGradient></defs><g id="Capa_2" data-name="Capa 2"><g id="Capa_1-2" data-name="Capa 1"><g id="Capa_2-2" data-name="Capa 2"><rect id="Rectángulo_1" data-name="Rectángulo 1" class="cls-1" width="657" height="416"/></g><path class="cls-2" d="M391.7,213.19c-3.75.85-13.62,1.35-13.62,1.35l-1.25,3.9a57.21,57.21,0,0,1,8.52-.05s1.17-.13,1.3,1.33a21.94,21.94,0,0,1-.11,2.81s-.08.89-1.33,1.1-10.62.57-10.62.57l-1.51,5.07s-.54,1.18.71.84,10.88-2.14,12.15-1.88,2.87,2.14,2.43,3.8c-.53,2-10.21,8.23-16.12,7.79,0,0-3.1.21-5.73-4-2.45-4,.94-11.56.94-11.56s-1.54-3.54-.42-4.72a4.71,4.71,0,0,1,2.61-.75l2.37-4.92a5.58,5.58,0,0,1-4.33-1.8c-1.51-1.9-1.61-2.76-.47-3.28s12.5-2.65,20.26-2.39c0,0,2.71-.26,5,4.42,0,0,1.12,1.9-.8,2.35Zm-29.19,18.9c-1,2.34-3.62,4.84-6.87,3.28s-8.36-12.06-8.36-12.06-1.95-3.9-2.31-3.82c0,0-.42-.76-.68,3.51s0,12.58-1.64,13.88a3,3,0,0,1-4.58-.76c-.92-1.51-1.31-5.1-.81-11.4s2.06-13,3.93-15.13,3.38-.57,4,0c0,0,2.5,2.26,6.64,8.93l.73,1.22s3.74,6.3,4.13,6.27c0,0,.32.29.58.08s.23-2.13.23-2.13a122.11,122.11,0,0,0-4.19-18.46,5.4,5.4,0,0,1-.16-2.81c.37-1.36,1.72-.73,1.72-.73s5.31,2.65,7.86,11.3.81,16.5-.18,18.85Zm-26.08-22.21c-.45.88-.71,2.16-2.95,2.5,0,0-21.42,1.46-22.44,3,0,0-.75.88.42,1.14s6,.89,8.36,1,10.93.1,13.95,3.88c0,0,1.8,1.79,1.72,5.85s-.81,5.63-2.42,7.14-16.22,7.91-25.6-2.09c0,0-4.32-4.81,1.49-8.46,0,0,4.19-2.52,14.84.45,0,0,3.23,1.17,3.07,2.34s-2.65,2.58-6.25,2.5a11.88,11.88,0,0,1-5.54-1.51c.47.18-3.75-2-5.05-.52s-1,2.24.28,3.1c3.26,1.84,15.83,1.19,19.58-3,0,0,1.48-1.69-.78-3.07s-8.75-2.09-11.27-2.22-11.43,0-12.73-2.37c0,0-1.31-1.61.13-6.19,1.51-4.79,12-6.64,16.53-7.06,0,0,12.47-.44,14.76,2.11a2,2,0,0,1-.1,1.46ZM301,238c-1.51,1.12-4.71.63-5.63-.62s-1.22-5.58-1-12.55.34-15.81,1.85-17.19,2.61-.18,3.23.78a7.31,7.31,0,0,1,1.67,4.2c.18,2.21.67,13.82.67,13.82S302.45,236.88,301,238Zm3.25-37.44c-4.4,1.46-7.42,1-10-.13-1.12,1.95-1.77,2.55-2.63,2.68-1.25.13-2.37-1.87-2.58-2.52a3.61,3.61,0,0,1-.07-3.31,7.57,7.57,0,0,1-2.27-7.29c.63-2.34,4.84-11.25,17.68-12.29,0,0,6.27-.47,7.34,2.89H312s6.09,0,6,5.44-6.76,12.22-13.64,14.53Zm-12-12.05c-1.31,2.08-1.36,3.33-.76,4.19a30.82,30.82,0,0,1,8.18-8.54A9.27,9.27,0,0,0,292.3,188.48ZM310,185c-4,.6-10.29,6-13.26,10.44,4.56.83,12.61.52,16.17-6.74C312.92,188.69,314.63,184.18,310,185Zm109.55,41.94c-2.42,4.22-9.22,13-18.28,11a94.11,94.11,0,0,0-6.92,25.57s-.31,2.13-2.08,1.38-4.66-3.54-5.24-7.58c-.62-5.31,1.75-14.29,6.56-24.57-1.4-2.3-2.36-5.58-1.53-10.24,0,0,1.22-8.64,9.89-16.45,0,0,1-.91,1.64-.63s.37,3.1-.18,4.46S399,217.9,399,217.9s-2.42,4.53-1.74,8.09c4.56-7,14.92-21.14,21.35-16.68,2.16,1.53,3.15,4.89,3.15,8.51a19.77,19.77,0,0,1-2.19,9.11Zm-1.87-11.09s-.37-2.79-3.08.29a66.14,66.14,0,0,0-10,14,16.38,16.38,0,0,0,8-3.33c1.69-1.51,5.62-5.57,5-11Zm-126.4,3.54c-.5,6.3-2.92,16.9-20.08,22.13-11.32,3.41-22,1.77-27.85.29-.13,2.31-.39,3.3-.76,3.69s-4.19,2.63-6.22-.39c-.91-1.43-1.38-4-1.64-6.35-13.12-6-19.16-14.73-19.4-15.12a5.29,5.29,0,0,1-.28-7.24c2.81-3.47,12-6.93,20.28-8.33.28-7.09,1.12-12.42,2.11-14.87,1.19-2.84,2.7-.29,4,1.64,1.09,1.43,1.74,7.6,1.79,12.52a55.52,55.52,0,0,1,14.66,1.23c7.86,1.43,13.12,5.44,12.65,10a7.24,7.24,0,0,1-6,6.46,11.16,11.16,0,0,1-4.19-1c-1.75-.83-.13-1.56,2-2.47,2.29-1.12,1.77-2.27,1.77-2.27-.86-2.5-11.07-4.24-21.22-4.24,0,5.6.23,14.89.36,20.3a58.07,58.07,0,0,0,12.42,1.1s25.93-.73,26.71-17.29-25.85-32.49-45.56-37.54S206,180,205.05,180.51s-.07.68-.07.68a18.38,18.38,0,0,1,2.91.78c2,.62.44,1.64.44,1.64-3.35,1.07-7.13.39-7.86-1.15s.5-2.91,1.9-4.89,2.94-2,2.94-2c24.35-8.43,54,6.83,54,6.83C287.09,196.47,291.83,213,291.31,219.38Zm-73.47-.86c-2.76,1.36-.86,3.31-.86,3.31a44,44,0,0,0,17.62,11.22c.71-9.61.6-13,.68-17.83-9.48.65-14.94,2.16-17.44,3.3Z"/><path class="cls-2" d="M471.13,216.54V220a1.33,1.33,0,0,1-1.33,1.35H453.4c0,.86,0,1.62,0,2.32a126.13,126.13,0,0,1-.71,13.88,1.34,1.34,0,0,1-1.32,1.22h-3.55a1.25,1.25,0,0,1-.93-.42,1.17,1.17,0,0,1-.31-1,122.9,122.9,0,0,0,.72-13.7c0-.73,0-1.48,0-2.32h-16.2a1.34,1.34,0,0,1-1.35-1.33v-3.46a1.34,1.34,0,0,1,1.33-1.35h16a119.73,119.73,0,0,0-2.1-16.45,1.16,1.16,0,0,1,.23-.94,1.1,1.1,0,0,1,.86-.42h3.83a1.25,1.25,0,0,1,1.22,1,131.4,131.4,0,0,1,2.08,16.79h16.59A1.37,1.37,0,0,1,471.13,216.54Z"/><path class="cls-3" d="M252.25,171.16h0m-.18,0-.24,0a.5.5,0,0,0,.24,0Zm0,0-.24,0a.5.5,0,0,0,.24,0Z"/><path class="cls-4" d="M448.84,189.29a114.27,114.27,0,0,0-201-20.31,1.35,1.35,0,0,0-.16,1.17,1.27,1.27,0,0,0,.84.83l3,1a2.17,2.17,0,0,0,.52.08,1.73,1.73,0,0,0,1.38-.73A108.26,108.26,0,0,1,442.7,190a1.57,1.57,0,0,0,1.43,1h3.54a1.2,1.2,0,0,0,1-.55A1.14,1.14,0,0,0,448.84,189.29Zm-196.79-18.1a.69.69,0,0,1-.24-.05.69.69,0,0,0,.24.05ZM443.4,190.51a1.12,1.12,0,0,0,.24.13Z"/></g></g></svg>