<svg xmlns="http://www.w3.org/2000/svg" xmlns:xlink="http://www.w3.org/1999/xlink" viewBox="0 0 657 416"><defs><style>.cls-1{fill:#056991;}.cls-2{fill:url(#Degradado_sin_nombre_4);}.cls-3{fill:url(#Degradado_sin_nombre_2);}.cls-4{fill:url(#Degradado_sin_nombre_3);}</style><linearGradient id="Degradado_sin_nombre_4" x1="537.4" y1="139.46" x2="624.15" y2="139.46" gradientTransform="matrix(1, 0, 0, -1, -247.5, 381.5)" gradientUnits="userSpaceOnUse"><stop offset="0" stop-color="#cce0f4"/><stop offset="0.06" stop-color="#c3dcf2"/><stop offset="0.17" stop-color="#a9d2ee"/><stop offset="0.31" stop-color="#80c2e7"/><stop offset="0.46" stop-color="#47acde"/><stop offset="0.57" stop-color="#1e9cd7"/><stop offset="0.87" stop-color="#0075be"/><stop offset="0.99" stop-color="#005b97"/></linearGradient><radialGradient id="Degradado_sin_nombre_2" cx="362.74" cy="319.09" r="13.91" gradientTransform="matrix(1, 0, 0, -1, 8.82, 449.41)" gradientUnits="userSpaceOnUse"><stop offset="0" stop-color="#86c5d8" stop-opacity="0.88"/><stop offset="0.32" stop-color="#6ab5d3" stop-opacity="0.92"/><stop offset="0.56" stop-color="#56a9d0" stop-opacity="0.94"/><stop offset="0.81" stop-color="#49a2ce" stop-opacity="0.96"/><stop offset="0.98" stop-color="#409dcc" stop-opacity="0.97"/></radialGradient><linearGradient id="Degradado_sin_nombre_3" x1="509.92" y1="121.25" x2="596.33" y2="121.25" gradientTransform="matrix(1, 0, 0, -1, -247.5, 381.5)" gradientUnits="userSpaceOnUse"><stop offset="0.11" stop-color="#30c0ae" stop-opacity="0.83"/><stop offset="0.64" stop-color="#65e5d8" stop-opacity="0.91"/><stop offset="0.9" stop-color="#b3f2ec" stop-opacity="0.98"/><stop offset="1" stop-color="#e2faf8"/></linearGradient></defs><g id="Capa_2" data-name="Capa 2"><rect id="Rectángulo_1" data-name="Rectángulo 1" class="cls-1" width="657" height="416"/><path class="cls-2" d="M290.24,288.56V255.91c0-1.39-.77-2.6,0-1.46,6.65,9.83,32.44,30.95,52.51,4.83A30,30,0,0,0,348.83,241v-56.3a.5.5,0,0,1,.51-.51h21.79a5.52,5.52,0,0,1,5.52,5.52v51.11a57.34,57.34,0,0,1-6.35,26.48c-9.93,19-32.81,46.15-77.8,24.9A4,4,0,0,1,290.24,288.56Z" transform="translate(8.82 -32.59)"/><circle class="cls-3" cx="371.56" cy="130.33" r="13.91"/><path class="cls-4" d="M348.83,238.34s-7.33-24.9-29.3-24.9c0,0-32.55,1.47-29.48,39.05.1,1.3.19,2.62.19,3.94V311.6a7.57,7.57,0,0,1-.63,3.07A33.88,33.88,0,0,1,262.42,335V238.34a29,29,0,0,1,.87-7.19c2.93-11.37,14.65-42,56.24-45.58,0,0,19-1.46,29.3,8.79Z" transform="translate(8.82 -32.59)"/></g></svg>