<svg xmlns="http://www.w3.org/2000/svg" viewBox="0 0 657 416"><defs><style>.cls-1{fill:#0082e7;}.cls-2{fill:#008cff;stroke:#fff;stroke-miterlimit:10;}.cls-3{fill:#fff;}</style></defs><g id="Capa_2" data-name="Capa 2"><g id="Capa_1-2" data-name="Capa 1"><g id="Capa_2-2" data-name="Capa 2"><rect id="Rectángulo_1" data-name="Rectángulo 1" class="cls-1" width="657" height="416"/></g><path class="cls-2" d="M249.77,231.75H278.3s5.59.15,4.88,6.89L262.1,259.86H278s7.74-.86,7,7.17H257.65s-5.88.28-6-7.17l21.22-21.08H256.94S248.91,238.78,249.77,231.75Z"/><path class="cls-2" d="M372.41,174.27a44.3,44.3,0,1,0-44.29,44.29A44.29,44.29,0,0,0,372.41,174.27Z"/><path class="cls-2" d="M301,260.15a10.76,10.76,0,1,1,10.75-10.76A10.76,10.76,0,0,1,301,260.15Zm17.78-10.76A17.79,17.79,0,1,0,301,267.17,17.78,17.78,0,0,0,318.78,249.39Z"/><path class="cls-2" d="M338.28,260.15A10.76,10.76,0,1,1,349,249.39,10.75,10.75,0,0,1,338.28,260.15Zm17.78-10.76a17.78,17.78,0,1,0-17.78,17.78A17.78,17.78,0,0,0,356.06,249.39Z"/><path class="cls-2" d="M357.74,231.61V267s6.74,1.29,7-5.88V246s.29-7.17,7.31-7.31c0,0,6.74.28,7,7v15.63s.43,6.31,7.31,5.74V245.81s.14-7.6,7.31-7.17c0,0,6,.43,6.46,6v14.77s-.58,8.46,7.31,7.6v-21.8s-.43-12.19-13.05-13.62c0,0-8-.29-11.83,4.87,0,0-8.41-9.52-18.43-2.29A10.64,10.64,0,0,0,357.74,231.61Z"/><path class="cls-3" d="M299.47,158.14h32.62s8,.79,8.23,7.16V190H308.75s-9,1.06-9.28-8.22Z"/><polygon class="cls-3" points="356.23 158.14 356.23 190 342.17 180.68 342.17 167.69 356.23 158.14"/></g></g></svg>