<svg xmlns="http://www.w3.org/2000/svg" width="657" height="416" viewBox="0 0 657 416">
  <g id="Grupo_1" data-name="Grupo 1" transform="translate(-822 -238)">
    <rect id="Rectángulo_1" data-name="Rectángulo 1" width="657" height="416" transform="translate(822 238)" fill="#2ae5d2"/>
    <g id="layer1" transform="translate(992.76 312.671)">
      <g id="g4744" transform="translate(-3.392 0.612)">
        <path id="rect4738" d="M48.632,40.717H272.818V226.946H48.632Z"/>
        <path id="rect4133" d="M48.632,40.717H272.818V226.946H48.632Z"/>
        <path id="rect4135" d="M80.661,49.927H240.793V215.921H80.661Z" fill="#fff"/>
        <g id="g4707" transform="translate(0 2.651)">
          <path id="rect4137" d="M244.824,49.022h22.537v15.42H244.824Z" fill="#fff"/>
          <path id="rect4139" d="M244.824,73.533h22.537v15.42H244.824Z" fill="#fff"/>
          <path id="rect4141" d="M244.824,98.048h22.537v15.42H244.824Z" fill="#fff"/>
          <path id="rect4143" d="M244.824,122.564h22.537v15.42H244.824Z" fill="#fff"/>
          <path id="rect4145" d="M244.824,147.079h22.537V162.5H244.824Z" fill="#fff"/>
          <path id="rect4147" d="M244.824,171.59h22.537v15.42H244.824Z" fill="#fff"/>
          <path id="rect4149" d="M244.824,196.1h22.537v15.42H244.824Z" fill="#fff"/>
        </g>
        <g id="g4698" transform="translate(0 -2.383)">
          <path id="rect4162" d="M53.14,54.054H75.678v15.42H53.14Z" fill="#fff"/>
          <path id="rect4164" d="M53.14,78.569H75.678v15.42H53.14Z" fill="#fff"/>
          <path id="rect4166" d="M53.14,103.084H75.678V118.5H53.14Z" fill="#fff"/>
          <path id="rect4168" d="M53.14,127.6H75.678v15.42H53.14Z" fill="#fff"/>
          <path id="rect4170" d="M53.14,152.11H75.678v15.42H53.14Z" fill="#fff"/>
          <path id="rect4172" d="M53.14,176.626H75.678v15.42H53.14Z" fill="#fff"/>
          <path id="rect4174" d="M53.14,201.141H75.678v15.42H53.14Z" fill="#fff"/>
        </g>
        <path id="path4720" d="M355.687,224.136a72.353,72.353,0,1,1-72.353-72.353A72.353,72.353,0,0,1,355.687,224.136Z" transform="translate(-121.646 -94.59)" fill="#4d4d4d"/>
        <path id="path4716" d="M320.132,201.731a65.121,65.121,0,1,1-65.121-65.121A65.121,65.121,0,0,1,320.132,201.731Z" transform="translate(-93.311 -72.176)" fill="#999"/>
        <path id="path4718" d="M272.179,171.513a55.366,55.366,0,1,1-55.366-55.366A55.366,55.366,0,0,1,272.179,171.513Z" transform="translate(-55.121 -41.964)" fill="#fff"/>
        <path id="path4722" d="M208.769,131.555A42.467,42.467,0,1,1,166.3,89.088,42.467,42.467,0,0,1,208.769,131.555Z" transform="translate(-4.613 -2.011)" fill="none" stroke="#1e1e1e" stroke-width="0.428"/>
        <g id="text4724">
          <path id="path4795" d="M152.389,145.509a8.385,8.385,0,0,0,4.876,1.328l7.239.149a5.717,5.717,0,0,0,4.432-1.772q2.216-2.07,2.216-6.5a7.221,7.221,0,0,0-.591-3.4,1.34,1.34,0,0,0-.737-.739q-1.33-.444-9.014-.444a3.506,3.506,0,0,1-3.546-2.807,4.553,4.553,0,0,1,1.035-4.432,2.954,2.954,0,0,1,2.511-1.181q8.865,0,9.75-1.625a7.229,7.229,0,0,0,.591-3.4q0-4.73-2.216-6.8a5.99,5.99,0,0,0-4.432-1.625h-.147l-7.093-.149a8.791,8.791,0,0,0-3.99.888q-.886.591-.886.442a4.17,4.17,0,0,1-2.067,3.7,3.917,3.917,0,0,1-4.137,0,4.117,4.117,0,0,1-2.216-3.7q.3-5.169,5.614-7.83a16.349,16.349,0,0,1,7.683-1.774H164.5a13.854,13.854,0,0,1,10.195,4.137q4.728,4.581,4.727,12.708a15.706,15.706,0,0,1-1.477,7.091q-.444.591-1.477,1.921a21.66,21.66,0,0,1,1.477,1.774,15.512,15.512,0,0,1,1.477,7.239q0,7.683-4.727,12.411A13.854,13.854,0,0,1,164.5,155.26h-7.239a16.949,16.949,0,0,1-7.683-1.772q-5.614-2.66-5.614-7.683a3.916,3.916,0,0,1,2.216-3.7,3.549,3.549,0,0,1,4.137,0,3.961,3.961,0,0,1,2.067,3.7Z" fill="#1a1a1a"/>
        </g>
        <path id="path4728" d="M161.4,50.612l.586,157.877" fill="none" stroke="#1e1e1e" stroke-width="0.458"/>
        <path id="path4730" d="M239.693,129.845l-157.877-.586" fill="none" stroke="#1e1e1e" stroke-width="0.458"/>
      </g>
    </g>
  </g>
</svg>
